<?xml version="1.0" standalone="no"?>
<!DOCTYPE svg PUBLIC "-//W3C//DTD SVG 1.1//EN" "http://www.w3.org/Graphics/SVG/1.1/DTD/svg11.dtd">
<svg width="800" height="600" version="1.1" xmlns="http://www.w3.org/2000/svg">
<rect width="800" height="600" x="0" y="0" style="fill:rgb(240,240,240);stroke:none"/>
<rect width="800" height="600" x="0" y="0" style="fill:rgb(255,255,255);stroke:none"/>
<text x="2" y="565" fill="rgb(0,0,0)" font-family="Arial" font-size="10">0</text>
<text x="2" y="513" fill="rgb(0,0,0)" font-family="Arial" font-size="10">10</text>
<text x="2" y="461" fill="rgb(0,0,0)" font-family="Arial" font-size="10">20</text>
<text x="2" y="409" fill="rgb(0,0,0)" font-family="Arial" font-size="10">30</text>
<text x="2" y="357" fill="rgb(0,0,0)" font-family="Arial" font-size="10">40</text>
<text x="2" y="305" fill="rgb(0,0,0)" font-family="Arial" font-size="10">50</text>
<text x="2" y="253" fill="rgb(0,0,0)" font-family="Arial" font-size="10">60</text>
<text x="2" y="201" fill="rgb(0,0,0)" font-family="Arial" font-size="10">70</text>
<text x="2" y="149" fill="rgb(0,0,0)" font-family="Arial" font-size="10">80</text>
<text x="2" y="97" fill="rgb(0,0,0)" font-family="Arial" font-size="10">90</text>
<text x="2" y="45" fill="rgb(0,0,0)" font-family="Arial" font-size="10">100</text>
<text x="296" y="30" fill="rgb(0,0,0)" font-family="Arial" font-size="10">Percent of seqs remaining if deduplicated 92.25%</text>
<line x1="20" y1="560" x2="790" y2="560" stroke="rgb(0,0,0)" stroke-width="1"/>
<line x1="20" y1="560" x2="20" y2="40" stroke="rgb(0,0,0)" stroke-width="1"/>
<text x="339" y="595" fill="rgb(0,0,0)" font-family="Arial" font-size="10">Sequence Duplication Level</text>
<text x="42" y="575" fill="rgb(0,0,0)" font-family="Arial" font-size="10">1</text>
<rect width="48" height="520" x="68" y="40" style="fill:rgb(230,230,230);stroke:none"/>
<text x="90" y="575" fill="rgb(0,0,0)" font-family="Arial" font-size="10">2</text>
<text x="138" y="575" fill="rgb(0,0,0)" font-family="Arial" font-size="10">3</text>
<rect width="48" height="520" x="164" y="40" style="fill:rgb(230,230,230);stroke:none"/>
<text x="186" y="575" fill="rgb(0,0,0)" font-family="Arial" font-size="10">4</text>
<text x="234" y="575" fill="rgb(0,0,0)" font-family="Arial" font-size="10">5</text>
<rect width="48" height="520" x="260" y="40" style="fill:rgb(230,230,230);stroke:none"/>
<text x="282" y="575" fill="rgb(0,0,0)" font-family="Arial" font-size="10">6</text>
<text x="330" y="575" fill="rgb(0,0,0)" font-family="Arial" font-size="10">7</text>
<rect width="48" height="520" x="356" y="40" style="fill:rgb(230,230,230);stroke:none"/>
<text x="378" y="575" fill="rgb(0,0,0)" font-family="Arial" font-size="10">8</text>
<text x="426" y="575" fill="rgb(0,0,0)" font-family="Arial" font-size="10">9</text>
<rect width="48" height="520" x="452" y="40" style="fill:rgb(230,230,230);stroke:none"/>
<text x="468" y="575" fill="rgb(0,0,0)" font-family="Arial" font-size="10">&gt;10</text>
<text x="516" y="575" fill="rgb(0,0,0)" font-family="Arial" font-size="10">&gt;50</text>
<rect width="48" height="520" x="548" y="40" style="fill:rgb(230,230,230);stroke:none"/>
<text x="561" y="575" fill="rgb(0,0,0)" font-family="Arial" font-size="10">&gt;100</text>
<text x="609" y="575" fill="rgb(0,0,0)" font-family="Arial" font-size="10">&gt;500</text>
<rect width="48" height="520" x="644" y="40" style="fill:rgb(230,230,230);stroke:none"/>
<text x="659" y="575" fill="rgb(0,0,0)" font-family="Arial" font-size="10">&gt;1k</text>
<text x="707" y="575" fill="rgb(0,0,0)" font-family="Arial" font-size="10">&gt;5k</text>
<rect width="48" height="520" x="740" y="40" style="fill:rgb(230,230,230);stroke:none"/>
<text x="753" y="575" fill="rgb(0,0,0)" font-family="Arial" font-size="10">&gt;10k</text>
<line x1="20" y1="560" x2="790" y2="560" stroke="rgb(180,180,180)" stroke-width="1"/>
<line x1="20" y1="508" x2="790" y2="508" stroke="rgb(180,180,180)" stroke-width="1"/>
<line x1="20" y1="456" x2="790" y2="456" stroke="rgb(180,180,180)" stroke-width="1"/>
<line x1="20" y1="404" x2="790" y2="404" stroke="rgb(180,180,180)" stroke-width="1"/>
<line x1="20" y1="352" x2="790" y2="352" stroke="rgb(180,180,180)" stroke-width="1"/>
<line x1="20" y1="300" x2="790" y2="300" stroke="rgb(180,180,180)" stroke-width="1"/>
<line x1="20" y1="248" x2="790" y2="248" stroke="rgb(180,180,180)" stroke-width="1"/>
<line x1="20" y1="196" x2="790" y2="196" stroke="rgb(180,180,180)" stroke-width="1"/>
<line x1="20" y1="144" x2="790" y2="144" stroke="rgb(180,180,180)" stroke-width="1"/>
<line x1="20" y1="92" x2="790" y2="92" stroke="rgb(180,180,180)" stroke-width="1"/>
<line x1="20" y1="40" x2="790" y2="40" stroke="rgb(180,180,180)" stroke-width="1"/>
<line x1="44" y1="94" x2="92" y2="543" stroke="rgb(136,34,85)" stroke-width="1"/>
<line x1="92" y1="543" x2="140" y2="557" stroke="rgb(136,34,85)" stroke-width="1"/>
<line x1="140" y1="557" x2="188" y2="558" stroke="rgb(136,34,85)" stroke-width="1"/>
<line x1="188" y1="558" x2="236" y2="558" stroke="rgb(136,34,85)" stroke-width="1"/>
<line x1="236" y1="558" x2="284" y2="559" stroke="rgb(136,34,85)" stroke-width="1"/>
<line x1="284" y1="559" x2="332" y2="559" stroke="rgb(136,34,85)" stroke-width="1"/>
<line x1="332" y1="559" x2="380" y2="559" stroke="rgb(136,34,85)" stroke-width="1"/>
<line x1="380" y1="559" x2="428" y2="560" stroke="rgb(136,34,85)" stroke-width="1"/>
<line x1="428" y1="560" x2="476" y2="551" stroke="rgb(136,34,85)" stroke-width="1"/>
<line x1="476" y1="551" x2="524" y2="558" stroke="rgb(136,34,85)" stroke-width="1"/>
<line x1="524" y1="558" x2="572" y2="556" stroke="rgb(136,34,85)" stroke-width="1"/>
<line x1="572" y1="556" x2="620" y2="558" stroke="rgb(136,34,85)" stroke-width="1"/>
<line x1="620" y1="558" x2="668" y2="558" stroke="rgb(136,34,85)" stroke-width="1"/>
<line x1="668" y1="558" x2="716" y2="560" stroke="rgb(136,34,85)" stroke-width="1"/>
<line x1="716" y1="560" x2="764" y2="560" stroke="rgb(136,34,85)" stroke-width="1"/>
<rect width="101" height="23" x="689" y="40" style="fill:rgb(255,255,255);stroke:none"/>
<rect width="101" height="23" x="689" y="40" rx="0" ry="0" style="fill:none;stroke-width:1;stroke:rgb(192,192,192)"/>
<text x="692" y="55" fill="rgb(136,34,85)" font-family="Arial" font-size="10" font-weight="bold">% Total sequences</text>
</svg>
