<?xml version="1.0" standalone="no"?>
<!DOCTYPE svg PUBLIC "-//W3C//DTD SVG 1.1//EN" "http://www.w3.org/Graphics/SVG/1.1/DTD/svg11.dtd">
<svg width="800" height="600" version="1.1" xmlns="http://www.w3.org/2000/svg">
<rect width="800" height="600" x="0" y="0" style="fill:rgb(240,240,240);stroke:none"/>
<rect width="800" height="600" x="0" y="0" style="fill:rgb(255,255,255);stroke:none"/>
<text x="2" y="565" fill="rgb(0,0,0)" font-family="Arial" font-size="10">0</text>
<text x="2" y="536" fill="rgb(0,0,0)" font-family="Arial" font-size="10">2</text>
<text x="2" y="506" fill="rgb(0,0,0)" font-family="Arial" font-size="10">4</text>
<text x="2" y="476" fill="rgb(0,0,0)" font-family="Arial" font-size="10">6</text>
<text x="2" y="447" fill="rgb(0,0,0)" font-family="Arial" font-size="10">8</text>
<text x="2" y="417" fill="rgb(0,0,0)" font-family="Arial" font-size="10">10</text>
<text x="2" y="387" fill="rgb(0,0,0)" font-family="Arial" font-size="10">12</text>
<text x="2" y="357" fill="rgb(0,0,0)" font-family="Arial" font-size="10">14</text>
<text x="2" y="328" fill="rgb(0,0,0)" font-family="Arial" font-size="10">16</text>
<text x="2" y="298" fill="rgb(0,0,0)" font-family="Arial" font-size="10">18</text>
<text x="2" y="268" fill="rgb(0,0,0)" font-family="Arial" font-size="10">20</text>
<text x="2" y="239" fill="rgb(0,0,0)" font-family="Arial" font-size="10">22</text>
<text x="2" y="209" fill="rgb(0,0,0)" font-family="Arial" font-size="10">24</text>
<text x="2" y="179" fill="rgb(0,0,0)" font-family="Arial" font-size="10">26</text>
<text x="2" y="149" fill="rgb(0,0,0)" font-family="Arial" font-size="10">28</text>
<text x="2" y="120" fill="rgb(0,0,0)" font-family="Arial" font-size="10">30</text>
<text x="2" y="90" fill="rgb(0,0,0)" font-family="Arial" font-size="10">32</text>
<text x="2" y="60" fill="rgb(0,0,0)" font-family="Arial" font-size="10">34</text>
<text x="261" y="30" fill="rgb(0,0,0)" font-family="Arial" font-size="10">Quality scores across all bases (Sanger / Illumina 1.9 encoding)</text>
<rect width="18" height="297" x="15" y="263" style="fill:rgb(230,175,175);stroke:none"/>
<rect width="18" height="119" x="15" y="144" style="fill:rgb(230,215,175);stroke:none"/>
<rect width="18" height="104" x="15" y="40" style="fill:rgb(175,230,175);stroke:none"/>
<text x="22" y="575" fill="rgb(0,0,0)" font-family="Arial" font-size="10">1</text>
<rect width="18" height="297" x="33" y="263" style="fill:rgb(230,195,195);stroke:none"/>
<rect width="18" height="119" x="33" y="144" style="fill:rgb(230,220,195);stroke:none"/>
<rect width="18" height="104" x="33" y="40" style="fill:rgb(195,230,195);stroke:none"/>
<text x="40" y="575" fill="rgb(0,0,0)" font-family="Arial" font-size="10">2</text>
<rect width="18" height="297" x="51" y="263" style="fill:rgb(230,175,175);stroke:none"/>
<rect width="18" height="119" x="51" y="144" style="fill:rgb(230,215,175);stroke:none"/>
<rect width="18" height="104" x="51" y="40" style="fill:rgb(175,230,175);stroke:none"/>
<text x="58" y="575" fill="rgb(0,0,0)" font-family="Arial" font-size="10">3</text>
<rect width="18" height="297" x="69" y="263" style="fill:rgb(230,195,195);stroke:none"/>
<rect width="18" height="119" x="69" y="144" style="fill:rgb(230,220,195);stroke:none"/>
<rect width="18" height="104" x="69" y="40" style="fill:rgb(195,230,195);stroke:none"/>
<text x="76" y="575" fill="rgb(0,0,0)" font-family="Arial" font-size="10">4</text>
<rect width="18" height="297" x="87" y="263" style="fill:rgb(230,175,175);stroke:none"/>
<rect width="18" height="119" x="87" y="144" style="fill:rgb(230,215,175);stroke:none"/>
<rect width="18" height="104" x="87" y="40" style="fill:rgb(175,230,175);stroke:none"/>
<text x="94" y="575" fill="rgb(0,0,0)" font-family="Arial" font-size="10">5</text>
<rect width="18" height="297" x="105" y="263" style="fill:rgb(230,195,195);stroke:none"/>
<rect width="18" height="119" x="105" y="144" style="fill:rgb(230,220,195);stroke:none"/>
<rect width="18" height="104" x="105" y="40" style="fill:rgb(195,230,195);stroke:none"/>
<text x="112" y="575" fill="rgb(0,0,0)" font-family="Arial" font-size="10">6</text>
<rect width="18" height="297" x="123" y="263" style="fill:rgb(230,175,175);stroke:none"/>
<rect width="18" height="119" x="123" y="144" style="fill:rgb(230,215,175);stroke:none"/>
<rect width="18" height="104" x="123" y="40" style="fill:rgb(175,230,175);stroke:none"/>
<text x="130" y="575" fill="rgb(0,0,0)" font-family="Arial" font-size="10">7</text>
<rect width="18" height="297" x="141" y="263" style="fill:rgb(230,195,195);stroke:none"/>
<rect width="18" height="119" x="141" y="144" style="fill:rgb(230,220,195);stroke:none"/>
<rect width="18" height="104" x="141" y="40" style="fill:rgb(195,230,195);stroke:none"/>
<text x="148" y="575" fill="rgb(0,0,0)" font-family="Arial" font-size="10">8</text>
<rect width="18" height="297" x="159" y="263" style="fill:rgb(230,175,175);stroke:none"/>
<rect width="18" height="119" x="159" y="144" style="fill:rgb(230,215,175);stroke:none"/>
<rect width="18" height="104" x="159" y="40" style="fill:rgb(175,230,175);stroke:none"/>
<text x="166" y="575" fill="rgb(0,0,0)" font-family="Arial" font-size="10">9</text>
<rect width="18" height="297" x="177" y="263" style="fill:rgb(230,195,195);stroke:none"/>
<rect width="18" height="119" x="177" y="144" style="fill:rgb(230,220,195);stroke:none"/>
<rect width="18" height="104" x="177" y="40" style="fill:rgb(195,230,195);stroke:none"/>
<rect width="18" height="297" x="195" y="263" style="fill:rgb(230,175,175);stroke:none"/>
<rect width="18" height="119" x="195" y="144" style="fill:rgb(230,215,175);stroke:none"/>
<rect width="18" height="104" x="195" y="40" style="fill:rgb(175,230,175);stroke:none"/>
<text x="192" y="575" fill="rgb(0,0,0)" font-family="Arial" font-size="10">12-13</text>
<rect width="18" height="297" x="213" y="263" style="fill:rgb(230,195,195);stroke:none"/>
<rect width="18" height="119" x="213" y="144" style="fill:rgb(230,220,195);stroke:none"/>
<rect width="18" height="104" x="213" y="40" style="fill:rgb(195,230,195);stroke:none"/>
<rect width="18" height="297" x="231" y="263" style="fill:rgb(230,175,175);stroke:none"/>
<rect width="18" height="119" x="231" y="144" style="fill:rgb(230,215,175);stroke:none"/>
<rect width="18" height="104" x="231" y="40" style="fill:rgb(175,230,175);stroke:none"/>
<text x="228" y="575" fill="rgb(0,0,0)" font-family="Arial" font-size="10">16-17</text>
<rect width="18" height="297" x="249" y="263" style="fill:rgb(230,195,195);stroke:none"/>
<rect width="18" height="119" x="249" y="144" style="fill:rgb(230,220,195);stroke:none"/>
<rect width="18" height="104" x="249" y="40" style="fill:rgb(195,230,195);stroke:none"/>
<rect width="18" height="297" x="267" y="263" style="fill:rgb(230,175,175);stroke:none"/>
<rect width="18" height="119" x="267" y="144" style="fill:rgb(230,215,175);stroke:none"/>
<rect width="18" height="104" x="267" y="40" style="fill:rgb(175,230,175);stroke:none"/>
<text x="264" y="575" fill="rgb(0,0,0)" font-family="Arial" font-size="10">20-21</text>
<rect width="18" height="297" x="285" y="263" style="fill:rgb(230,195,195);stroke:none"/>
<rect width="18" height="119" x="285" y="144" style="fill:rgb(230,220,195);stroke:none"/>
<rect width="18" height="104" x="285" y="40" style="fill:rgb(195,230,195);stroke:none"/>
<rect width="18" height="297" x="303" y="263" style="fill:rgb(230,175,175);stroke:none"/>
<rect width="18" height="119" x="303" y="144" style="fill:rgb(230,215,175);stroke:none"/>
<rect width="18" height="104" x="303" y="40" style="fill:rgb(175,230,175);stroke:none"/>
<text x="300" y="575" fill="rgb(0,0,0)" font-family="Arial" font-size="10">24-25</text>
<rect width="18" height="297" x="321" y="263" style="fill:rgb(230,195,195);stroke:none"/>
<rect width="18" height="119" x="321" y="144" style="fill:rgb(230,220,195);stroke:none"/>
<rect width="18" height="104" x="321" y="40" style="fill:rgb(195,230,195);stroke:none"/>
<rect width="18" height="297" x="339" y="263" style="fill:rgb(230,175,175);stroke:none"/>
<rect width="18" height="119" x="339" y="144" style="fill:rgb(230,215,175);stroke:none"/>
<rect width="18" height="104" x="339" y="40" style="fill:rgb(175,230,175);stroke:none"/>
<text x="336" y="575" fill="rgb(0,0,0)" font-family="Arial" font-size="10">28-29</text>
<rect width="18" height="297" x="357" y="263" style="fill:rgb(230,195,195);stroke:none"/>
<rect width="18" height="119" x="357" y="144" style="fill:rgb(230,220,195);stroke:none"/>
<rect width="18" height="104" x="357" y="40" style="fill:rgb(195,230,195);stroke:none"/>
<rect width="18" height="297" x="375" y="263" style="fill:rgb(230,175,175);stroke:none"/>
<rect width="18" height="119" x="375" y="144" style="fill:rgb(230,215,175);stroke:none"/>
<rect width="18" height="104" x="375" y="40" style="fill:rgb(175,230,175);stroke:none"/>
<text x="372" y="575" fill="rgb(0,0,0)" font-family="Arial" font-size="10">32-33</text>
<rect width="18" height="297" x="393" y="263" style="fill:rgb(230,195,195);stroke:none"/>
<rect width="18" height="119" x="393" y="144" style="fill:rgb(230,220,195);stroke:none"/>
<rect width="18" height="104" x="393" y="40" style="fill:rgb(195,230,195);stroke:none"/>
<rect width="18" height="297" x="411" y="263" style="fill:rgb(230,175,175);stroke:none"/>
<rect width="18" height="119" x="411" y="144" style="fill:rgb(230,215,175);stroke:none"/>
<rect width="18" height="104" x="411" y="40" style="fill:rgb(175,230,175);stroke:none"/>
<text x="408" y="575" fill="rgb(0,0,0)" font-family="Arial" font-size="10">36-37</text>
<rect width="18" height="297" x="429" y="263" style="fill:rgb(230,195,195);stroke:none"/>
<rect width="18" height="119" x="429" y="144" style="fill:rgb(230,220,195);stroke:none"/>
<rect width="18" height="104" x="429" y="40" style="fill:rgb(195,230,195);stroke:none"/>
<rect width="18" height="297" x="447" y="263" style="fill:rgb(230,175,175);stroke:none"/>
<rect width="18" height="119" x="447" y="144" style="fill:rgb(230,215,175);stroke:none"/>
<rect width="18" height="104" x="447" y="40" style="fill:rgb(175,230,175);stroke:none"/>
<text x="444" y="575" fill="rgb(0,0,0)" font-family="Arial" font-size="10">40-41</text>
<rect width="18" height="297" x="465" y="263" style="fill:rgb(230,195,195);stroke:none"/>
<rect width="18" height="119" x="465" y="144" style="fill:rgb(230,220,195);stroke:none"/>
<rect width="18" height="104" x="465" y="40" style="fill:rgb(195,230,195);stroke:none"/>
<rect width="18" height="297" x="483" y="263" style="fill:rgb(230,175,175);stroke:none"/>
<rect width="18" height="119" x="483" y="144" style="fill:rgb(230,215,175);stroke:none"/>
<rect width="18" height="104" x="483" y="40" style="fill:rgb(175,230,175);stroke:none"/>
<text x="480" y="575" fill="rgb(0,0,0)" font-family="Arial" font-size="10">44-45</text>
<rect width="18" height="297" x="501" y="263" style="fill:rgb(230,195,195);stroke:none"/>
<rect width="18" height="119" x="501" y="144" style="fill:rgb(230,220,195);stroke:none"/>
<rect width="18" height="104" x="501" y="40" style="fill:rgb(195,230,195);stroke:none"/>
<rect width="18" height="297" x="519" y="263" style="fill:rgb(230,175,175);stroke:none"/>
<rect width="18" height="119" x="519" y="144" style="fill:rgb(230,215,175);stroke:none"/>
<rect width="18" height="104" x="519" y="40" style="fill:rgb(175,230,175);stroke:none"/>
<text x="516" y="575" fill="rgb(0,0,0)" font-family="Arial" font-size="10">48-49</text>
<rect width="18" height="297" x="537" y="263" style="fill:rgb(230,195,195);stroke:none"/>
<rect width="18" height="119" x="537" y="144" style="fill:rgb(230,220,195);stroke:none"/>
<rect width="18" height="104" x="537" y="40" style="fill:rgb(195,230,195);stroke:none"/>
<rect width="18" height="297" x="555" y="263" style="fill:rgb(230,175,175);stroke:none"/>
<rect width="18" height="119" x="555" y="144" style="fill:rgb(230,215,175);stroke:none"/>
<rect width="18" height="104" x="555" y="40" style="fill:rgb(175,230,175);stroke:none"/>
<text x="552" y="575" fill="rgb(0,0,0)" font-family="Arial" font-size="10">52-53</text>
<rect width="18" height="297" x="573" y="263" style="fill:rgb(230,195,195);stroke:none"/>
<rect width="18" height="119" x="573" y="144" style="fill:rgb(230,220,195);stroke:none"/>
<rect width="18" height="104" x="573" y="40" style="fill:rgb(195,230,195);stroke:none"/>
<rect width="18" height="297" x="591" y="263" style="fill:rgb(230,175,175);stroke:none"/>
<rect width="18" height="119" x="591" y="144" style="fill:rgb(230,215,175);stroke:none"/>
<rect width="18" height="104" x="591" y="40" style="fill:rgb(175,230,175);stroke:none"/>
<text x="588" y="575" fill="rgb(0,0,0)" font-family="Arial" font-size="10">56-57</text>
<rect width="18" height="297" x="609" y="263" style="fill:rgb(230,195,195);stroke:none"/>
<rect width="18" height="119" x="609" y="144" style="fill:rgb(230,220,195);stroke:none"/>
<rect width="18" height="104" x="609" y="40" style="fill:rgb(195,230,195);stroke:none"/>
<rect width="18" height="297" x="627" y="263" style="fill:rgb(230,175,175);stroke:none"/>
<rect width="18" height="119" x="627" y="144" style="fill:rgb(230,215,175);stroke:none"/>
<rect width="18" height="104" x="627" y="40" style="fill:rgb(175,230,175);stroke:none"/>
<text x="624" y="575" fill="rgb(0,0,0)" font-family="Arial" font-size="10">60-61</text>
<rect width="18" height="297" x="645" y="263" style="fill:rgb(230,195,195);stroke:none"/>
<rect width="18" height="119" x="645" y="144" style="fill:rgb(230,220,195);stroke:none"/>
<rect width="18" height="104" x="645" y="40" style="fill:rgb(195,230,195);stroke:none"/>
<rect width="18" height="297" x="663" y="263" style="fill:rgb(230,175,175);stroke:none"/>
<rect width="18" height="119" x="663" y="144" style="fill:rgb(230,215,175);stroke:none"/>
<rect width="18" height="104" x="663" y="40" style="fill:rgb(175,230,175);stroke:none"/>
<text x="660" y="575" fill="rgb(0,0,0)" font-family="Arial" font-size="10">64-65</text>
<rect width="18" height="297" x="681" y="263" style="fill:rgb(230,195,195);stroke:none"/>
<rect width="18" height="119" x="681" y="144" style="fill:rgb(230,220,195);stroke:none"/>
<rect width="18" height="104" x="681" y="40" style="fill:rgb(195,230,195);stroke:none"/>
<rect width="18" height="297" x="699" y="263" style="fill:rgb(230,175,175);stroke:none"/>
<rect width="18" height="119" x="699" y="144" style="fill:rgb(230,215,175);stroke:none"/>
<rect width="18" height="104" x="699" y="40" style="fill:rgb(175,230,175);stroke:none"/>
<text x="696" y="575" fill="rgb(0,0,0)" font-family="Arial" font-size="10">68-69</text>
<rect width="18" height="297" x="717" y="263" style="fill:rgb(230,195,195);stroke:none"/>
<rect width="18" height="119" x="717" y="144" style="fill:rgb(230,220,195);stroke:none"/>
<rect width="18" height="104" x="717" y="40" style="fill:rgb(195,230,195);stroke:none"/>
<rect width="18" height="297" x="735" y="263" style="fill:rgb(230,175,175);stroke:none"/>
<rect width="18" height="119" x="735" y="144" style="fill:rgb(230,215,175);stroke:none"/>
<rect width="18" height="104" x="735" y="40" style="fill:rgb(175,230,175);stroke:none"/>
<text x="732" y="575" fill="rgb(0,0,0)" font-family="Arial" font-size="10">72-73</text>
<rect width="18" height="297" x="753" y="263" style="fill:rgb(230,195,195);stroke:none"/>
<rect width="18" height="119" x="753" y="144" style="fill:rgb(230,220,195);stroke:none"/>
<rect width="18" height="104" x="753" y="40" style="fill:rgb(195,230,195);stroke:none"/>
<rect width="18" height="297" x="771" y="263" style="fill:rgb(230,175,175);stroke:none"/>
<rect width="18" height="119" x="771" y="144" style="fill:rgb(230,215,175);stroke:none"/>
<rect width="18" height="104" x="771" y="40" style="fill:rgb(175,230,175);stroke:none"/>
<text x="775" y="575" fill="rgb(0,0,0)" font-family="Arial" font-size="10">76</text>
<line x1="15" y1="560" x2="790" y2="560" stroke="rgb(0,0,0)" stroke-width="1"/>
<line x1="15" y1="560" x2="15" y2="40" stroke="rgb(0,0,0)" stroke-width="1"/>
<text x="354" y="595" fill="rgb(0,0,0)" font-family="Arial" font-size="10">Position in read (bp)</text>
<rect width="14" height="0" x="17" y="115" style="fill:rgb(240,240,0);stroke:none"/>
<rect width="14" height="0" x="17" y="115" rx="0" ry="0" style="fill:none;stroke-width:1;stroke:rgb(0,0,0)"/>
<line x1="24" y1="115" x2="24" y2="115" stroke="rgb(0,0,0)" stroke-width="1"/>
<line x1="17" y1="115" x2="31" y2="115" stroke="rgb(0,0,0)" stroke-width="1"/>
<line x1="24" y1="115" x2="24" y2="115" stroke="rgb(0,0,0)" stroke-width="1"/>
<line x1="17" y1="115" x2="31" y2="115" stroke="rgb(0,0,0)" stroke-width="1"/>
<line x1="17" y1="115" x2="31" y2="115" stroke="rgb(200,0,0)" stroke-width="1"/>
<rect width="14" height="0" x="35" y="115" style="fill:rgb(240,240,0);stroke:none"/>
<rect width="14" height="0" x="35" y="115" rx="0" ry="0" style="fill:none;stroke-width:1;stroke:rgb(0,0,0)"/>
<line x1="42" y1="115" x2="42" y2="115" stroke="rgb(0,0,0)" stroke-width="1"/>
<line x1="35" y1="115" x2="49" y2="115" stroke="rgb(0,0,0)" stroke-width="1"/>
<line x1="42" y1="115" x2="42" y2="115" stroke="rgb(0,0,0)" stroke-width="1"/>
<line x1="35" y1="115" x2="49" y2="115" stroke="rgb(0,0,0)" stroke-width="1"/>
<line x1="35" y1="115" x2="49" y2="115" stroke="rgb(200,0,0)" stroke-width="1"/>
<rect width="14" height="0" x="53" y="115" style="fill:rgb(240,240,0);stroke:none"/>
<rect width="14" height="0" x="53" y="115" rx="0" ry="0" style="fill:none;stroke-width:1;stroke:rgb(0,0,0)"/>
<line x1="60" y1="115" x2="60" y2="115" stroke="rgb(0,0,0)" stroke-width="1"/>
<line x1="53" y1="115" x2="67" y2="115" stroke="rgb(0,0,0)" stroke-width="1"/>
<line x1="60" y1="115" x2="60" y2="115" stroke="rgb(0,0,0)" stroke-width="1"/>
<line x1="53" y1="115" x2="67" y2="115" stroke="rgb(0,0,0)" stroke-width="1"/>
<line x1="53" y1="115" x2="67" y2="115" stroke="rgb(200,0,0)" stroke-width="1"/>
<rect width="14" height="0" x="71" y="115" style="fill:rgb(240,240,0);stroke:none"/>
<rect width="14" height="0" x="71" y="115" rx="0" ry="0" style="fill:none;stroke-width:1;stroke:rgb(0,0,0)"/>
<line x1="78" y1="115" x2="78" y2="115" stroke="rgb(0,0,0)" stroke-width="1"/>
<line x1="71" y1="115" x2="85" y2="115" stroke="rgb(0,0,0)" stroke-width="1"/>
<line x1="78" y1="115" x2="78" y2="115" stroke="rgb(0,0,0)" stroke-width="1"/>
<line x1="71" y1="115" x2="85" y2="115" stroke="rgb(0,0,0)" stroke-width="1"/>
<line x1="71" y1="115" x2="85" y2="115" stroke="rgb(200,0,0)" stroke-width="1"/>
<rect width="14" height="0" x="89" y="115" style="fill:rgb(240,240,0);stroke:none"/>
<rect width="14" height="0" x="89" y="115" rx="0" ry="0" style="fill:none;stroke-width:1;stroke:rgb(0,0,0)"/>
<line x1="96" y1="115" x2="96" y2="115" stroke="rgb(0,0,0)" stroke-width="1"/>
<line x1="89" y1="115" x2="103" y2="115" stroke="rgb(0,0,0)" stroke-width="1"/>
<line x1="96" y1="115" x2="96" y2="115" stroke="rgb(0,0,0)" stroke-width="1"/>
<line x1="89" y1="115" x2="103" y2="115" stroke="rgb(0,0,0)" stroke-width="1"/>
<line x1="89" y1="115" x2="103" y2="115" stroke="rgb(200,0,0)" stroke-width="1"/>
<rect width="14" height="0" x="107" y="115" style="fill:rgb(240,240,0);stroke:none"/>
<rect width="14" height="0" x="107" y="115" rx="0" ry="0" style="fill:none;stroke-width:1;stroke:rgb(0,0,0)"/>
<line x1="114" y1="115" x2="114" y2="115" stroke="rgb(0,0,0)" stroke-width="1"/>
<line x1="107" y1="115" x2="121" y2="115" stroke="rgb(0,0,0)" stroke-width="1"/>
<line x1="114" y1="115" x2="114" y2="115" stroke="rgb(0,0,0)" stroke-width="1"/>
<line x1="107" y1="115" x2="121" y2="115" stroke="rgb(0,0,0)" stroke-width="1"/>
<line x1="107" y1="115" x2="121" y2="115" stroke="rgb(200,0,0)" stroke-width="1"/>
<rect width="14" height="0" x="125" y="115" style="fill:rgb(240,240,0);stroke:none"/>
<rect width="14" height="0" x="125" y="115" rx="0" ry="0" style="fill:none;stroke-width:1;stroke:rgb(0,0,0)"/>
<line x1="132" y1="115" x2="132" y2="115" stroke="rgb(0,0,0)" stroke-width="1"/>
<line x1="125" y1="115" x2="139" y2="115" stroke="rgb(0,0,0)" stroke-width="1"/>
<line x1="132" y1="115" x2="132" y2="115" stroke="rgb(0,0,0)" stroke-width="1"/>
<line x1="125" y1="115" x2="139" y2="115" stroke="rgb(0,0,0)" stroke-width="1"/>
<line x1="125" y1="115" x2="139" y2="115" stroke="rgb(200,0,0)" stroke-width="1"/>
<rect width="14" height="0" x="143" y="115" style="fill:rgb(240,240,0);stroke:none"/>
<rect width="14" height="0" x="143" y="115" rx="0" ry="0" style="fill:none;stroke-width:1;stroke:rgb(0,0,0)"/>
<line x1="150" y1="115" x2="150" y2="115" stroke="rgb(0,0,0)" stroke-width="1"/>
<line x1="143" y1="115" x2="157" y2="115" stroke="rgb(0,0,0)" stroke-width="1"/>
<line x1="150" y1="115" x2="150" y2="115" stroke="rgb(0,0,0)" stroke-width="1"/>
<line x1="143" y1="115" x2="157" y2="115" stroke="rgb(0,0,0)" stroke-width="1"/>
<line x1="143" y1="115" x2="157" y2="115" stroke="rgb(200,0,0)" stroke-width="1"/>
<rect width="14" height="0" x="161" y="115" style="fill:rgb(240,240,0);stroke:none"/>
<rect width="14" height="0" x="161" y="115" rx="0" ry="0" style="fill:none;stroke-width:1;stroke:rgb(0,0,0)"/>
<line x1="168" y1="115" x2="168" y2="115" stroke="rgb(0,0,0)" stroke-width="1"/>
<line x1="161" y1="115" x2="175" y2="115" stroke="rgb(0,0,0)" stroke-width="1"/>
<line x1="168" y1="115" x2="168" y2="115" stroke="rgb(0,0,0)" stroke-width="1"/>
<line x1="161" y1="115" x2="175" y2="115" stroke="rgb(0,0,0)" stroke-width="1"/>
<line x1="161" y1="115" x2="175" y2="115" stroke="rgb(200,0,0)" stroke-width="1"/>
<rect width="14" height="0" x="179" y="115" style="fill:rgb(240,240,0);stroke:none"/>
<rect width="14" height="0" x="179" y="115" rx="0" ry="0" style="fill:none;stroke-width:1;stroke:rgb(0,0,0)"/>
<line x1="186" y1="115" x2="186" y2="115" stroke="rgb(0,0,0)" stroke-width="1"/>
<line x1="179" y1="115" x2="193" y2="115" stroke="rgb(0,0,0)" stroke-width="1"/>
<line x1="186" y1="115" x2="186" y2="115" stroke="rgb(0,0,0)" stroke-width="1"/>
<line x1="179" y1="115" x2="193" y2="115" stroke="rgb(0,0,0)" stroke-width="1"/>
<line x1="179" y1="115" x2="193" y2="115" stroke="rgb(200,0,0)" stroke-width="1"/>
<rect width="14" height="0" x="197" y="115" style="fill:rgb(240,240,0);stroke:none"/>
<rect width="14" height="0" x="197" y="115" rx="0" ry="0" style="fill:none;stroke-width:1;stroke:rgb(0,0,0)"/>
<line x1="204" y1="115" x2="204" y2="115" stroke="rgb(0,0,0)" stroke-width="1"/>
<line x1="197" y1="115" x2="211" y2="115" stroke="rgb(0,0,0)" stroke-width="1"/>
<line x1="204" y1="115" x2="204" y2="115" stroke="rgb(0,0,0)" stroke-width="1"/>
<line x1="197" y1="115" x2="211" y2="115" stroke="rgb(0,0,0)" stroke-width="1"/>
<line x1="197" y1="115" x2="211" y2="115" stroke="rgb(200,0,0)" stroke-width="1"/>
<rect width="14" height="0" x="215" y="115" style="fill:rgb(240,240,0);stroke:none"/>
<rect width="14" height="0" x="215" y="115" rx="0" ry="0" style="fill:none;stroke-width:1;stroke:rgb(0,0,0)"/>
<line x1="222" y1="115" x2="222" y2="115" stroke="rgb(0,0,0)" stroke-width="1"/>
<line x1="215" y1="115" x2="229" y2="115" stroke="rgb(0,0,0)" stroke-width="1"/>
<line x1="222" y1="115" x2="222" y2="115" stroke="rgb(0,0,0)" stroke-width="1"/>
<line x1="215" y1="115" x2="229" y2="115" stroke="rgb(0,0,0)" stroke-width="1"/>
<line x1="215" y1="115" x2="229" y2="115" stroke="rgb(200,0,0)" stroke-width="1"/>
<rect width="14" height="0" x="233" y="115" style="fill:rgb(240,240,0);stroke:none"/>
<rect width="14" height="0" x="233" y="115" rx="0" ry="0" style="fill:none;stroke-width:1;stroke:rgb(0,0,0)"/>
<line x1="240" y1="115" x2="240" y2="115" stroke="rgb(0,0,0)" stroke-width="1"/>
<line x1="233" y1="115" x2="247" y2="115" stroke="rgb(0,0,0)" stroke-width="1"/>
<line x1="240" y1="115" x2="240" y2="115" stroke="rgb(0,0,0)" stroke-width="1"/>
<line x1="233" y1="115" x2="247" y2="115" stroke="rgb(0,0,0)" stroke-width="1"/>
<line x1="233" y1="115" x2="247" y2="115" stroke="rgb(200,0,0)" stroke-width="1"/>
<rect width="14" height="0" x="251" y="115" style="fill:rgb(240,240,0);stroke:none"/>
<rect width="14" height="0" x="251" y="115" rx="0" ry="0" style="fill:none;stroke-width:1;stroke:rgb(0,0,0)"/>
<line x1="258" y1="115" x2="258" y2="115" stroke="rgb(0,0,0)" stroke-width="1"/>
<line x1="251" y1="115" x2="265" y2="115" stroke="rgb(0,0,0)" stroke-width="1"/>
<line x1="258" y1="115" x2="258" y2="115" stroke="rgb(0,0,0)" stroke-width="1"/>
<line x1="251" y1="115" x2="265" y2="115" stroke="rgb(0,0,0)" stroke-width="1"/>
<line x1="251" y1="115" x2="265" y2="115" stroke="rgb(200,0,0)" stroke-width="1"/>
<rect width="14" height="0" x="269" y="115" style="fill:rgb(240,240,0);stroke:none"/>
<rect width="14" height="0" x="269" y="115" rx="0" ry="0" style="fill:none;stroke-width:1;stroke:rgb(0,0,0)"/>
<line x1="276" y1="115" x2="276" y2="115" stroke="rgb(0,0,0)" stroke-width="1"/>
<line x1="269" y1="115" x2="283" y2="115" stroke="rgb(0,0,0)" stroke-width="1"/>
<line x1="276" y1="115" x2="276" y2="115" stroke="rgb(0,0,0)" stroke-width="1"/>
<line x1="269" y1="115" x2="283" y2="115" stroke="rgb(0,0,0)" stroke-width="1"/>
<line x1="269" y1="115" x2="283" y2="115" stroke="rgb(200,0,0)" stroke-width="1"/>
<rect width="14" height="0" x="287" y="115" style="fill:rgb(240,240,0);stroke:none"/>
<rect width="14" height="0" x="287" y="115" rx="0" ry="0" style="fill:none;stroke-width:1;stroke:rgb(0,0,0)"/>
<line x1="294" y1="115" x2="294" y2="115" stroke="rgb(0,0,0)" stroke-width="1"/>
<line x1="287" y1="115" x2="301" y2="115" stroke="rgb(0,0,0)" stroke-width="1"/>
<line x1="294" y1="115" x2="294" y2="115" stroke="rgb(0,0,0)" stroke-width="1"/>
<line x1="287" y1="115" x2="301" y2="115" stroke="rgb(0,0,0)" stroke-width="1"/>
<line x1="287" y1="115" x2="301" y2="115" stroke="rgb(200,0,0)" stroke-width="1"/>
<rect width="14" height="0" x="305" y="115" style="fill:rgb(240,240,0);stroke:none"/>
<rect width="14" height="0" x="305" y="115" rx="0" ry="0" style="fill:none;stroke-width:1;stroke:rgb(0,0,0)"/>
<line x1="312" y1="115" x2="312" y2="115" stroke="rgb(0,0,0)" stroke-width="1"/>
<line x1="305" y1="115" x2="319" y2="115" stroke="rgb(0,0,0)" stroke-width="1"/>
<line x1="312" y1="115" x2="312" y2="115" stroke="rgb(0,0,0)" stroke-width="1"/>
<line x1="305" y1="115" x2="319" y2="115" stroke="rgb(0,0,0)" stroke-width="1"/>
<line x1="305" y1="115" x2="319" y2="115" stroke="rgb(200,0,0)" stroke-width="1"/>
<rect width="14" height="0" x="323" y="115" style="fill:rgb(240,240,0);stroke:none"/>
<rect width="14" height="0" x="323" y="115" rx="0" ry="0" style="fill:none;stroke-width:1;stroke:rgb(0,0,0)"/>
<line x1="330" y1="115" x2="330" y2="115" stroke="rgb(0,0,0)" stroke-width="1"/>
<line x1="323" y1="115" x2="337" y2="115" stroke="rgb(0,0,0)" stroke-width="1"/>
<line x1="330" y1="115" x2="330" y2="115" stroke="rgb(0,0,0)" stroke-width="1"/>
<line x1="323" y1="115" x2="337" y2="115" stroke="rgb(0,0,0)" stroke-width="1"/>
<line x1="323" y1="115" x2="337" y2="115" stroke="rgb(200,0,0)" stroke-width="1"/>
<rect width="14" height="0" x="341" y="115" style="fill:rgb(240,240,0);stroke:none"/>
<rect width="14" height="0" x="341" y="115" rx="0" ry="0" style="fill:none;stroke-width:1;stroke:rgb(0,0,0)"/>
<line x1="348" y1="115" x2="348" y2="115" stroke="rgb(0,0,0)" stroke-width="1"/>
<line x1="341" y1="115" x2="355" y2="115" stroke="rgb(0,0,0)" stroke-width="1"/>
<line x1="348" y1="115" x2="348" y2="115" stroke="rgb(0,0,0)" stroke-width="1"/>
<line x1="341" y1="115" x2="355" y2="115" stroke="rgb(0,0,0)" stroke-width="1"/>
<line x1="341" y1="115" x2="355" y2="115" stroke="rgb(200,0,0)" stroke-width="1"/>
<rect width="14" height="0" x="359" y="115" style="fill:rgb(240,240,0);stroke:none"/>
<rect width="14" height="0" x="359" y="115" rx="0" ry="0" style="fill:none;stroke-width:1;stroke:rgb(0,0,0)"/>
<line x1="366" y1="115" x2="366" y2="115" stroke="rgb(0,0,0)" stroke-width="1"/>
<line x1="359" y1="115" x2="373" y2="115" stroke="rgb(0,0,0)" stroke-width="1"/>
<line x1="366" y1="115" x2="366" y2="115" stroke="rgb(0,0,0)" stroke-width="1"/>
<line x1="359" y1="115" x2="373" y2="115" stroke="rgb(0,0,0)" stroke-width="1"/>
<line x1="359" y1="115" x2="373" y2="115" stroke="rgb(200,0,0)" stroke-width="1"/>
<rect width="14" height="0" x="377" y="115" style="fill:rgb(240,240,0);stroke:none"/>
<rect width="14" height="0" x="377" y="115" rx="0" ry="0" style="fill:none;stroke-width:1;stroke:rgb(0,0,0)"/>
<line x1="384" y1="115" x2="384" y2="115" stroke="rgb(0,0,0)" stroke-width="1"/>
<line x1="377" y1="115" x2="391" y2="115" stroke="rgb(0,0,0)" stroke-width="1"/>
<line x1="384" y1="115" x2="384" y2="115" stroke="rgb(0,0,0)" stroke-width="1"/>
<line x1="377" y1="115" x2="391" y2="115" stroke="rgb(0,0,0)" stroke-width="1"/>
<line x1="377" y1="115" x2="391" y2="115" stroke="rgb(200,0,0)" stroke-width="1"/>
<rect width="14" height="0" x="395" y="115" style="fill:rgb(240,240,0);stroke:none"/>
<rect width="14" height="0" x="395" y="115" rx="0" ry="0" style="fill:none;stroke-width:1;stroke:rgb(0,0,0)"/>
<line x1="402" y1="115" x2="402" y2="115" stroke="rgb(0,0,0)" stroke-width="1"/>
<line x1="395" y1="115" x2="409" y2="115" stroke="rgb(0,0,0)" stroke-width="1"/>
<line x1="402" y1="115" x2="402" y2="115" stroke="rgb(0,0,0)" stroke-width="1"/>
<line x1="395" y1="115" x2="409" y2="115" stroke="rgb(0,0,0)" stroke-width="1"/>
<line x1="395" y1="115" x2="409" y2="115" stroke="rgb(200,0,0)" stroke-width="1"/>
<rect width="14" height="0" x="413" y="115" style="fill:rgb(240,240,0);stroke:none"/>
<rect width="14" height="0" x="413" y="115" rx="0" ry="0" style="fill:none;stroke-width:1;stroke:rgb(0,0,0)"/>
<line x1="420" y1="115" x2="420" y2="115" stroke="rgb(0,0,0)" stroke-width="1"/>
<line x1="413" y1="115" x2="427" y2="115" stroke="rgb(0,0,0)" stroke-width="1"/>
<line x1="420" y1="115" x2="420" y2="115" stroke="rgb(0,0,0)" stroke-width="1"/>
<line x1="413" y1="115" x2="427" y2="115" stroke="rgb(0,0,0)" stroke-width="1"/>
<line x1="413" y1="115" x2="427" y2="115" stroke="rgb(200,0,0)" stroke-width="1"/>
<rect width="14" height="0" x="431" y="115" style="fill:rgb(240,240,0);stroke:none"/>
<rect width="14" height="0" x="431" y="115" rx="0" ry="0" style="fill:none;stroke-width:1;stroke:rgb(0,0,0)"/>
<line x1="438" y1="115" x2="438" y2="115" stroke="rgb(0,0,0)" stroke-width="1"/>
<line x1="431" y1="115" x2="445" y2="115" stroke="rgb(0,0,0)" stroke-width="1"/>
<line x1="438" y1="115" x2="438" y2="115" stroke="rgb(0,0,0)" stroke-width="1"/>
<line x1="431" y1="115" x2="445" y2="115" stroke="rgb(0,0,0)" stroke-width="1"/>
<line x1="431" y1="115" x2="445" y2="115" stroke="rgb(200,0,0)" stroke-width="1"/>
<rect width="14" height="0" x="449" y="115" style="fill:rgb(240,240,0);stroke:none"/>
<rect width="14" height="0" x="449" y="115" rx="0" ry="0" style="fill:none;stroke-width:1;stroke:rgb(0,0,0)"/>
<line x1="456" y1="115" x2="456" y2="115" stroke="rgb(0,0,0)" stroke-width="1"/>
<line x1="449" y1="115" x2="463" y2="115" stroke="rgb(0,0,0)" stroke-width="1"/>
<line x1="456" y1="115" x2="456" y2="115" stroke="rgb(0,0,0)" stroke-width="1"/>
<line x1="449" y1="115" x2="463" y2="115" stroke="rgb(0,0,0)" stroke-width="1"/>
<line x1="449" y1="115" x2="463" y2="115" stroke="rgb(200,0,0)" stroke-width="1"/>
<rect width="14" height="0" x="467" y="115" style="fill:rgb(240,240,0);stroke:none"/>
<rect width="14" height="0" x="467" y="115" rx="0" ry="0" style="fill:none;stroke-width:1;stroke:rgb(0,0,0)"/>
<line x1="474" y1="115" x2="474" y2="115" stroke="rgb(0,0,0)" stroke-width="1"/>
<line x1="467" y1="115" x2="481" y2="115" stroke="rgb(0,0,0)" stroke-width="1"/>
<line x1="474" y1="115" x2="474" y2="115" stroke="rgb(0,0,0)" stroke-width="1"/>
<line x1="467" y1="115" x2="481" y2="115" stroke="rgb(0,0,0)" stroke-width="1"/>
<line x1="467" y1="115" x2="481" y2="115" stroke="rgb(200,0,0)" stroke-width="1"/>
<rect width="14" height="0" x="485" y="115" style="fill:rgb(240,240,0);stroke:none"/>
<rect width="14" height="0" x="485" y="115" rx="0" ry="0" style="fill:none;stroke-width:1;stroke:rgb(0,0,0)"/>
<line x1="492" y1="115" x2="492" y2="115" stroke="rgb(0,0,0)" stroke-width="1"/>
<line x1="485" y1="115" x2="499" y2="115" stroke="rgb(0,0,0)" stroke-width="1"/>
<line x1="492" y1="115" x2="492" y2="115" stroke="rgb(0,0,0)" stroke-width="1"/>
<line x1="485" y1="115" x2="499" y2="115" stroke="rgb(0,0,0)" stroke-width="1"/>
<line x1="485" y1="115" x2="499" y2="115" stroke="rgb(200,0,0)" stroke-width="1"/>
<rect width="14" height="0" x="503" y="115" style="fill:rgb(240,240,0);stroke:none"/>
<rect width="14" height="0" x="503" y="115" rx="0" ry="0" style="fill:none;stroke-width:1;stroke:rgb(0,0,0)"/>
<line x1="510" y1="115" x2="510" y2="115" stroke="rgb(0,0,0)" stroke-width="1"/>
<line x1="503" y1="115" x2="517" y2="115" stroke="rgb(0,0,0)" stroke-width="1"/>
<line x1="510" y1="115" x2="510" y2="115" stroke="rgb(0,0,0)" stroke-width="1"/>
<line x1="503" y1="115" x2="517" y2="115" stroke="rgb(0,0,0)" stroke-width="1"/>
<line x1="503" y1="115" x2="517" y2="115" stroke="rgb(200,0,0)" stroke-width="1"/>
<rect width="14" height="0" x="521" y="115" style="fill:rgb(240,240,0);stroke:none"/>
<rect width="14" height="0" x="521" y="115" rx="0" ry="0" style="fill:none;stroke-width:1;stroke:rgb(0,0,0)"/>
<line x1="528" y1="115" x2="528" y2="115" stroke="rgb(0,0,0)" stroke-width="1"/>
<line x1="521" y1="115" x2="535" y2="115" stroke="rgb(0,0,0)" stroke-width="1"/>
<line x1="528" y1="115" x2="528" y2="115" stroke="rgb(0,0,0)" stroke-width="1"/>
<line x1="521" y1="115" x2="535" y2="115" stroke="rgb(0,0,0)" stroke-width="1"/>
<line x1="521" y1="115" x2="535" y2="115" stroke="rgb(200,0,0)" stroke-width="1"/>
<rect width="14" height="0" x="539" y="115" style="fill:rgb(240,240,0);stroke:none"/>
<rect width="14" height="0" x="539" y="115" rx="0" ry="0" style="fill:none;stroke-width:1;stroke:rgb(0,0,0)"/>
<line x1="546" y1="115" x2="546" y2="115" stroke="rgb(0,0,0)" stroke-width="1"/>
<line x1="539" y1="115" x2="553" y2="115" stroke="rgb(0,0,0)" stroke-width="1"/>
<line x1="546" y1="115" x2="546" y2="115" stroke="rgb(0,0,0)" stroke-width="1"/>
<line x1="539" y1="115" x2="553" y2="115" stroke="rgb(0,0,0)" stroke-width="1"/>
<line x1="539" y1="115" x2="553" y2="115" stroke="rgb(200,0,0)" stroke-width="1"/>
<rect width="14" height="0" x="557" y="115" style="fill:rgb(240,240,0);stroke:none"/>
<rect width="14" height="0" x="557" y="115" rx="0" ry="0" style="fill:none;stroke-width:1;stroke:rgb(0,0,0)"/>
<line x1="564" y1="115" x2="564" y2="115" stroke="rgb(0,0,0)" stroke-width="1"/>
<line x1="557" y1="115" x2="571" y2="115" stroke="rgb(0,0,0)" stroke-width="1"/>
<line x1="564" y1="115" x2="564" y2="115" stroke="rgb(0,0,0)" stroke-width="1"/>
<line x1="557" y1="115" x2="571" y2="115" stroke="rgb(0,0,0)" stroke-width="1"/>
<line x1="557" y1="115" x2="571" y2="115" stroke="rgb(200,0,0)" stroke-width="1"/>
<rect width="14" height="0" x="575" y="115" style="fill:rgb(240,240,0);stroke:none"/>
<rect width="14" height="0" x="575" y="115" rx="0" ry="0" style="fill:none;stroke-width:1;stroke:rgb(0,0,0)"/>
<line x1="582" y1="115" x2="582" y2="115" stroke="rgb(0,0,0)" stroke-width="1"/>
<line x1="575" y1="115" x2="589" y2="115" stroke="rgb(0,0,0)" stroke-width="1"/>
<line x1="582" y1="115" x2="582" y2="115" stroke="rgb(0,0,0)" stroke-width="1"/>
<line x1="575" y1="115" x2="589" y2="115" stroke="rgb(0,0,0)" stroke-width="1"/>
<line x1="575" y1="115" x2="589" y2="115" stroke="rgb(200,0,0)" stroke-width="1"/>
<rect width="14" height="0" x="593" y="115" style="fill:rgb(240,240,0);stroke:none"/>
<rect width="14" height="0" x="593" y="115" rx="0" ry="0" style="fill:none;stroke-width:1;stroke:rgb(0,0,0)"/>
<line x1="600" y1="115" x2="600" y2="115" stroke="rgb(0,0,0)" stroke-width="1"/>
<line x1="593" y1="115" x2="607" y2="115" stroke="rgb(0,0,0)" stroke-width="1"/>
<line x1="600" y1="115" x2="600" y2="115" stroke="rgb(0,0,0)" stroke-width="1"/>
<line x1="593" y1="115" x2="607" y2="115" stroke="rgb(0,0,0)" stroke-width="1"/>
<line x1="593" y1="115" x2="607" y2="115" stroke="rgb(200,0,0)" stroke-width="1"/>
<rect width="14" height="0" x="611" y="115" style="fill:rgb(240,240,0);stroke:none"/>
<rect width="14" height="0" x="611" y="115" rx="0" ry="0" style="fill:none;stroke-width:1;stroke:rgb(0,0,0)"/>
<line x1="618" y1="115" x2="618" y2="115" stroke="rgb(0,0,0)" stroke-width="1"/>
<line x1="611" y1="115" x2="625" y2="115" stroke="rgb(0,0,0)" stroke-width="1"/>
<line x1="618" y1="115" x2="618" y2="115" stroke="rgb(0,0,0)" stroke-width="1"/>
<line x1="611" y1="115" x2="625" y2="115" stroke="rgb(0,0,0)" stroke-width="1"/>
<line x1="611" y1="115" x2="625" y2="115" stroke="rgb(200,0,0)" stroke-width="1"/>
<rect width="14" height="0" x="629" y="115" style="fill:rgb(240,240,0);stroke:none"/>
<rect width="14" height="0" x="629" y="115" rx="0" ry="0" style="fill:none;stroke-width:1;stroke:rgb(0,0,0)"/>
<line x1="636" y1="115" x2="636" y2="115" stroke="rgb(0,0,0)" stroke-width="1"/>
<line x1="629" y1="115" x2="643" y2="115" stroke="rgb(0,0,0)" stroke-width="1"/>
<line x1="636" y1="115" x2="636" y2="115" stroke="rgb(0,0,0)" stroke-width="1"/>
<line x1="629" y1="115" x2="643" y2="115" stroke="rgb(0,0,0)" stroke-width="1"/>
<line x1="629" y1="115" x2="643" y2="115" stroke="rgb(200,0,0)" stroke-width="1"/>
<rect width="14" height="0" x="647" y="115" style="fill:rgb(240,240,0);stroke:none"/>
<rect width="14" height="0" x="647" y="115" rx="0" ry="0" style="fill:none;stroke-width:1;stroke:rgb(0,0,0)"/>
<line x1="654" y1="115" x2="654" y2="115" stroke="rgb(0,0,0)" stroke-width="1"/>
<line x1="647" y1="115" x2="661" y2="115" stroke="rgb(0,0,0)" stroke-width="1"/>
<line x1="654" y1="115" x2="654" y2="115" stroke="rgb(0,0,0)" stroke-width="1"/>
<line x1="647" y1="115" x2="661" y2="115" stroke="rgb(0,0,0)" stroke-width="1"/>
<line x1="647" y1="115" x2="661" y2="115" stroke="rgb(200,0,0)" stroke-width="1"/>
<rect width="14" height="0" x="665" y="115" style="fill:rgb(240,240,0);stroke:none"/>
<rect width="14" height="0" x="665" y="115" rx="0" ry="0" style="fill:none;stroke-width:1;stroke:rgb(0,0,0)"/>
<line x1="672" y1="115" x2="672" y2="115" stroke="rgb(0,0,0)" stroke-width="1"/>
<line x1="665" y1="115" x2="679" y2="115" stroke="rgb(0,0,0)" stroke-width="1"/>
<line x1="672" y1="115" x2="672" y2="115" stroke="rgb(0,0,0)" stroke-width="1"/>
<line x1="665" y1="115" x2="679" y2="115" stroke="rgb(0,0,0)" stroke-width="1"/>
<line x1="665" y1="115" x2="679" y2="115" stroke="rgb(200,0,0)" stroke-width="1"/>
<rect width="14" height="0" x="683" y="115" style="fill:rgb(240,240,0);stroke:none"/>
<rect width="14" height="0" x="683" y="115" rx="0" ry="0" style="fill:none;stroke-width:1;stroke:rgb(0,0,0)"/>
<line x1="690" y1="115" x2="690" y2="115" stroke="rgb(0,0,0)" stroke-width="1"/>
<line x1="683" y1="115" x2="697" y2="115" stroke="rgb(0,0,0)" stroke-width="1"/>
<line x1="690" y1="115" x2="690" y2="115" stroke="rgb(0,0,0)" stroke-width="1"/>
<line x1="683" y1="115" x2="697" y2="115" stroke="rgb(0,0,0)" stroke-width="1"/>
<line x1="683" y1="115" x2="697" y2="115" stroke="rgb(200,0,0)" stroke-width="1"/>
<rect width="14" height="0" x="701" y="115" style="fill:rgb(240,240,0);stroke:none"/>
<rect width="14" height="0" x="701" y="115" rx="0" ry="0" style="fill:none;stroke-width:1;stroke:rgb(0,0,0)"/>
<line x1="708" y1="115" x2="708" y2="115" stroke="rgb(0,0,0)" stroke-width="1"/>
<line x1="701" y1="115" x2="715" y2="115" stroke="rgb(0,0,0)" stroke-width="1"/>
<line x1="708" y1="115" x2="708" y2="115" stroke="rgb(0,0,0)" stroke-width="1"/>
<line x1="701" y1="115" x2="715" y2="115" stroke="rgb(0,0,0)" stroke-width="1"/>
<line x1="701" y1="115" x2="715" y2="115" stroke="rgb(200,0,0)" stroke-width="1"/>
<rect width="14" height="0" x="719" y="115" style="fill:rgb(240,240,0);stroke:none"/>
<rect width="14" height="0" x="719" y="115" rx="0" ry="0" style="fill:none;stroke-width:1;stroke:rgb(0,0,0)"/>
<line x1="726" y1="115" x2="726" y2="115" stroke="rgb(0,0,0)" stroke-width="1"/>
<line x1="719" y1="115" x2="733" y2="115" stroke="rgb(0,0,0)" stroke-width="1"/>
<line x1="726" y1="115" x2="726" y2="115" stroke="rgb(0,0,0)" stroke-width="1"/>
<line x1="719" y1="115" x2="733" y2="115" stroke="rgb(0,0,0)" stroke-width="1"/>
<line x1="719" y1="115" x2="733" y2="115" stroke="rgb(200,0,0)" stroke-width="1"/>
<rect width="14" height="0" x="737" y="115" style="fill:rgb(240,240,0);stroke:none"/>
<rect width="14" height="0" x="737" y="115" rx="0" ry="0" style="fill:none;stroke-width:1;stroke:rgb(0,0,0)"/>
<line x1="744" y1="115" x2="744" y2="115" stroke="rgb(0,0,0)" stroke-width="1"/>
<line x1="737" y1="115" x2="751" y2="115" stroke="rgb(0,0,0)" stroke-width="1"/>
<line x1="744" y1="115" x2="744" y2="115" stroke="rgb(0,0,0)" stroke-width="1"/>
<line x1="737" y1="115" x2="751" y2="115" stroke="rgb(0,0,0)" stroke-width="1"/>
<line x1="737" y1="115" x2="751" y2="115" stroke="rgb(200,0,0)" stroke-width="1"/>
<rect width="14" height="0" x="755" y="115" style="fill:rgb(240,240,0);stroke:none"/>
<rect width="14" height="0" x="755" y="115" rx="0" ry="0" style="fill:none;stroke-width:1;stroke:rgb(0,0,0)"/>
<line x1="762" y1="115" x2="762" y2="115" stroke="rgb(0,0,0)" stroke-width="1"/>
<line x1="755" y1="115" x2="769" y2="115" stroke="rgb(0,0,0)" stroke-width="1"/>
<line x1="762" y1="115" x2="762" y2="115" stroke="rgb(0,0,0)" stroke-width="1"/>
<line x1="755" y1="115" x2="769" y2="115" stroke="rgb(0,0,0)" stroke-width="1"/>
<line x1="755" y1="115" x2="769" y2="115" stroke="rgb(200,0,0)" stroke-width="1"/>
<rect width="14" height="0" x="773" y="115" style="fill:rgb(240,240,0);stroke:none"/>
<rect width="14" height="0" x="773" y="115" rx="0" ry="0" style="fill:none;stroke-width:1;stroke:rgb(0,0,0)"/>
<line x1="780" y1="115" x2="780" y2="115" stroke="rgb(0,0,0)" stroke-width="1"/>
<line x1="773" y1="115" x2="787" y2="115" stroke="rgb(0,0,0)" stroke-width="1"/>
<line x1="780" y1="115" x2="780" y2="115" stroke="rgb(0,0,0)" stroke-width="1"/>
<line x1="773" y1="115" x2="787" y2="115" stroke="rgb(0,0,0)" stroke-width="1"/>
<line x1="773" y1="115" x2="787" y2="115" stroke="rgb(200,0,0)" stroke-width="1"/>
<line x1="24" y1="115" x2="42" y2="115" stroke="rgb(0,0,200)" stroke-width="1"/>
<line x1="42" y1="115" x2="60" y2="115" stroke="rgb(0,0,200)" stroke-width="1"/>
<line x1="60" y1="115" x2="78" y2="115" stroke="rgb(0,0,200)" stroke-width="1"/>
<line x1="78" y1="115" x2="96" y2="115" stroke="rgb(0,0,200)" stroke-width="1"/>
<line x1="96" y1="115" x2="114" y2="115" stroke="rgb(0,0,200)" stroke-width="1"/>
<line x1="114" y1="115" x2="132" y2="115" stroke="rgb(0,0,200)" stroke-width="1"/>
<line x1="132" y1="115" x2="150" y2="115" stroke="rgb(0,0,200)" stroke-width="1"/>
<line x1="150" y1="115" x2="168" y2="115" stroke="rgb(0,0,200)" stroke-width="1"/>
<line x1="168" y1="115" x2="186" y2="115" stroke="rgb(0,0,200)" stroke-width="1"/>
<line x1="186" y1="115" x2="204" y2="115" stroke="rgb(0,0,200)" stroke-width="1"/>
<line x1="204" y1="115" x2="222" y2="115" stroke="rgb(0,0,200)" stroke-width="1"/>
<line x1="222" y1="115" x2="240" y2="115" stroke="rgb(0,0,200)" stroke-width="1"/>
<line x1="240" y1="115" x2="258" y2="115" stroke="rgb(0,0,200)" stroke-width="1"/>
<line x1="258" y1="115" x2="276" y2="115" stroke="rgb(0,0,200)" stroke-width="1"/>
<line x1="276" y1="115" x2="294" y2="115" stroke="rgb(0,0,200)" stroke-width="1"/>
<line x1="294" y1="115" x2="312" y2="115" stroke="rgb(0,0,200)" stroke-width="1"/>
<line x1="312" y1="115" x2="330" y2="115" stroke="rgb(0,0,200)" stroke-width="1"/>
<line x1="330" y1="115" x2="348" y2="115" stroke="rgb(0,0,200)" stroke-width="1"/>
<line x1="348" y1="115" x2="366" y2="115" stroke="rgb(0,0,200)" stroke-width="1"/>
<line x1="366" y1="115" x2="384" y2="115" stroke="rgb(0,0,200)" stroke-width="1"/>
<line x1="384" y1="115" x2="402" y2="115" stroke="rgb(0,0,200)" stroke-width="1"/>
<line x1="402" y1="115" x2="420" y2="115" stroke="rgb(0,0,200)" stroke-width="1"/>
<line x1="420" y1="115" x2="438" y2="115" stroke="rgb(0,0,200)" stroke-width="1"/>
<line x1="438" y1="115" x2="456" y2="115" stroke="rgb(0,0,200)" stroke-width="1"/>
<line x1="456" y1="115" x2="474" y2="115" stroke="rgb(0,0,200)" stroke-width="1"/>
<line x1="474" y1="115" x2="492" y2="115" stroke="rgb(0,0,200)" stroke-width="1"/>
<line x1="492" y1="115" x2="510" y2="115" stroke="rgb(0,0,200)" stroke-width="1"/>
<line x1="510" y1="115" x2="528" y2="115" stroke="rgb(0,0,200)" stroke-width="1"/>
<line x1="528" y1="115" x2="546" y2="115" stroke="rgb(0,0,200)" stroke-width="1"/>
<line x1="546" y1="115" x2="564" y2="115" stroke="rgb(0,0,200)" stroke-width="1"/>
<line x1="564" y1="115" x2="582" y2="115" stroke="rgb(0,0,200)" stroke-width="1"/>
<line x1="582" y1="115" x2="600" y2="115" stroke="rgb(0,0,200)" stroke-width="1"/>
<line x1="600" y1="115" x2="618" y2="115" stroke="rgb(0,0,200)" stroke-width="1"/>
<line x1="618" y1="115" x2="636" y2="115" stroke="rgb(0,0,200)" stroke-width="1"/>
<line x1="636" y1="115" x2="654" y2="115" stroke="rgb(0,0,200)" stroke-width="1"/>
<line x1="654" y1="115" x2="672" y2="115" stroke="rgb(0,0,200)" stroke-width="1"/>
<line x1="672" y1="115" x2="690" y2="115" stroke="rgb(0,0,200)" stroke-width="1"/>
<line x1="690" y1="115" x2="708" y2="115" stroke="rgb(0,0,200)" stroke-width="1"/>
<line x1="708" y1="115" x2="726" y2="115" stroke="rgb(0,0,200)" stroke-width="1"/>
<line x1="726" y1="115" x2="744" y2="115" stroke="rgb(0,0,200)" stroke-width="1"/>
<line x1="744" y1="115" x2="762" y2="115" stroke="rgb(0,0,200)" stroke-width="1"/>
<line x1="762" y1="115" x2="780" y2="115" stroke="rgb(0,0,200)" stroke-width="1"/>
</svg>
