<?xml version="1.0" standalone="no"?>
<!DOCTYPE svg PUBLIC "-//W3C//DTD SVG 1.1//EN" "http://www.w3.org/Graphics/SVG/1.1/DTD/svg11.dtd">
<svg width="800" height="600" version="1.1" xmlns="http://www.w3.org/2000/svg">
<rect width="800" height="600" x="0" y="0" style="fill:rgb(240,240,240);stroke:none"/>
<rect width="800" height="600" x="0" y="0" style="fill:rgb(255,255,255);stroke:none"/>
<text x="2" y="565" fill="rgb(0,0,0)" font-family="Arial" font-size="10">0</text>
<text x="2" y="489" fill="rgb(0,0,0)" font-family="Arial" font-size="10">100000</text>
<text x="2" y="412" fill="rgb(0,0,0)" font-family="Arial" font-size="10">200000</text>
<text x="2" y="336" fill="rgb(0,0,0)" font-family="Arial" font-size="10">300000</text>
<text x="2" y="259" fill="rgb(0,0,0)" font-family="Arial" font-size="10">400000</text>
<text x="2" y="183" fill="rgb(0,0,0)" font-family="Arial" font-size="10">500000</text>
<text x="2" y="106" fill="rgb(0,0,0)" font-family="Arial" font-size="10">600000</text>
<text x="336" y="30" fill="rgb(0,0,0)" font-family="Arial" font-size="10">GC distribution over all sequences</text>
<line x1="35" y1="560" x2="790" y2="560" stroke="rgb(0,0,0)" stroke-width="1"/>
<line x1="35" y1="560" x2="35" y2="40" stroke="rgb(0,0,0)" stroke-width="1"/>
<text x="351" y="595" fill="rgb(0,0,0)" font-family="Arial" font-size="10">Mean GC content (%)</text>
<text x="36" y="575" fill="rgb(0,0,0)" font-family="Arial" font-size="10">0</text>
<rect width="7" height="520" x="42" y="40" style="fill:rgb(230,230,230);stroke:none"/>
<text x="50" y="575" fill="rgb(0,0,0)" font-family="Arial" font-size="10">2</text>
<rect width="7" height="520" x="56" y="40" style="fill:rgb(230,230,230);stroke:none"/>
<text x="64" y="575" fill="rgb(0,0,0)" font-family="Arial" font-size="10">4</text>
<rect width="7" height="520" x="70" y="40" style="fill:rgb(230,230,230);stroke:none"/>
<text x="78" y="575" fill="rgb(0,0,0)" font-family="Arial" font-size="10">6</text>
<rect width="7" height="520" x="84" y="40" style="fill:rgb(230,230,230);stroke:none"/>
<text x="92" y="575" fill="rgb(0,0,0)" font-family="Arial" font-size="10">8</text>
<rect width="7" height="520" x="98" y="40" style="fill:rgb(230,230,230);stroke:none"/>
<text x="103" y="575" fill="rgb(0,0,0)" font-family="Arial" font-size="10">10</text>
<rect width="7" height="520" x="112" y="40" style="fill:rgb(230,230,230);stroke:none"/>
<rect width="7" height="520" x="126" y="40" style="fill:rgb(230,230,230);stroke:none"/>
<text x="124" y="575" fill="rgb(0,0,0)" font-family="Arial" font-size="10">13</text>
<rect width="7" height="520" x="140" y="40" style="fill:rgb(230,230,230);stroke:none"/>
<text x="145" y="575" fill="rgb(0,0,0)" font-family="Arial" font-size="10">16</text>
<rect width="7" height="520" x="154" y="40" style="fill:rgb(230,230,230);stroke:none"/>
<rect width="7" height="520" x="168" y="40" style="fill:rgb(230,230,230);stroke:none"/>
<text x="166" y="575" fill="rgb(0,0,0)" font-family="Arial" font-size="10">19</text>
<rect width="7" height="520" x="182" y="40" style="fill:rgb(230,230,230);stroke:none"/>
<text x="187" y="575" fill="rgb(0,0,0)" font-family="Arial" font-size="10">22</text>
<rect width="7" height="520" x="196" y="40" style="fill:rgb(230,230,230);stroke:none"/>
<rect width="7" height="520" x="210" y="40" style="fill:rgb(230,230,230);stroke:none"/>
<text x="208" y="575" fill="rgb(0,0,0)" font-family="Arial" font-size="10">25</text>
<rect width="7" height="520" x="224" y="40" style="fill:rgb(230,230,230);stroke:none"/>
<text x="229" y="575" fill="rgb(0,0,0)" font-family="Arial" font-size="10">28</text>
<rect width="7" height="520" x="238" y="40" style="fill:rgb(230,230,230);stroke:none"/>
<rect width="7" height="520" x="252" y="40" style="fill:rgb(230,230,230);stroke:none"/>
<text x="250" y="575" fill="rgb(0,0,0)" font-family="Arial" font-size="10">31</text>
<rect width="7" height="520" x="266" y="40" style="fill:rgb(230,230,230);stroke:none"/>
<text x="271" y="575" fill="rgb(0,0,0)" font-family="Arial" font-size="10">34</text>
<rect width="7" height="520" x="280" y="40" style="fill:rgb(230,230,230);stroke:none"/>
<rect width="7" height="520" x="294" y="40" style="fill:rgb(230,230,230);stroke:none"/>
<text x="292" y="575" fill="rgb(0,0,0)" font-family="Arial" font-size="10">37</text>
<rect width="7" height="520" x="308" y="40" style="fill:rgb(230,230,230);stroke:none"/>
<text x="313" y="575" fill="rgb(0,0,0)" font-family="Arial" font-size="10">40</text>
<rect width="7" height="520" x="322" y="40" style="fill:rgb(230,230,230);stroke:none"/>
<rect width="7" height="520" x="336" y="40" style="fill:rgb(230,230,230);stroke:none"/>
<text x="334" y="575" fill="rgb(0,0,0)" font-family="Arial" font-size="10">43</text>
<rect width="7" height="520" x="350" y="40" style="fill:rgb(230,230,230);stroke:none"/>
<text x="355" y="575" fill="rgb(0,0,0)" font-family="Arial" font-size="10">46</text>
<rect width="7" height="520" x="364" y="40" style="fill:rgb(230,230,230);stroke:none"/>
<rect width="7" height="520" x="378" y="40" style="fill:rgb(230,230,230);stroke:none"/>
<text x="376" y="575" fill="rgb(0,0,0)" font-family="Arial" font-size="10">49</text>
<rect width="7" height="520" x="392" y="40" style="fill:rgb(230,230,230);stroke:none"/>
<text x="397" y="575" fill="rgb(0,0,0)" font-family="Arial" font-size="10">52</text>
<rect width="7" height="520" x="406" y="40" style="fill:rgb(230,230,230);stroke:none"/>
<rect width="7" height="520" x="420" y="40" style="fill:rgb(230,230,230);stroke:none"/>
<text x="418" y="575" fill="rgb(0,0,0)" font-family="Arial" font-size="10">55</text>
<rect width="7" height="520" x="434" y="40" style="fill:rgb(230,230,230);stroke:none"/>
<text x="439" y="575" fill="rgb(0,0,0)" font-family="Arial" font-size="10">58</text>
<rect width="7" height="520" x="448" y="40" style="fill:rgb(230,230,230);stroke:none"/>
<rect width="7" height="520" x="462" y="40" style="fill:rgb(230,230,230);stroke:none"/>
<text x="460" y="575" fill="rgb(0,0,0)" font-family="Arial" font-size="10">61</text>
<rect width="7" height="520" x="476" y="40" style="fill:rgb(230,230,230);stroke:none"/>
<text x="481" y="575" fill="rgb(0,0,0)" font-family="Arial" font-size="10">64</text>
<rect width="7" height="520" x="490" y="40" style="fill:rgb(230,230,230);stroke:none"/>
<rect width="7" height="520" x="504" y="40" style="fill:rgb(230,230,230);stroke:none"/>
<text x="502" y="575" fill="rgb(0,0,0)" font-family="Arial" font-size="10">67</text>
<rect width="7" height="520" x="518" y="40" style="fill:rgb(230,230,230);stroke:none"/>
<text x="523" y="575" fill="rgb(0,0,0)" font-family="Arial" font-size="10">70</text>
<rect width="7" height="520" x="532" y="40" style="fill:rgb(230,230,230);stroke:none"/>
<rect width="7" height="520" x="546" y="40" style="fill:rgb(230,230,230);stroke:none"/>
<text x="544" y="575" fill="rgb(0,0,0)" font-family="Arial" font-size="10">73</text>
<rect width="7" height="520" x="560" y="40" style="fill:rgb(230,230,230);stroke:none"/>
<text x="565" y="575" fill="rgb(0,0,0)" font-family="Arial" font-size="10">76</text>
<rect width="7" height="520" x="574" y="40" style="fill:rgb(230,230,230);stroke:none"/>
<rect width="7" height="520" x="588" y="40" style="fill:rgb(230,230,230);stroke:none"/>
<text x="586" y="575" fill="rgb(0,0,0)" font-family="Arial" font-size="10">79</text>
<rect width="7" height="520" x="602" y="40" style="fill:rgb(230,230,230);stroke:none"/>
<text x="607" y="575" fill="rgb(0,0,0)" font-family="Arial" font-size="10">82</text>
<rect width="7" height="520" x="616" y="40" style="fill:rgb(230,230,230);stroke:none"/>
<rect width="7" height="520" x="630" y="40" style="fill:rgb(230,230,230);stroke:none"/>
<text x="628" y="575" fill="rgb(0,0,0)" font-family="Arial" font-size="10">85</text>
<rect width="7" height="520" x="644" y="40" style="fill:rgb(230,230,230);stroke:none"/>
<text x="649" y="575" fill="rgb(0,0,0)" font-family="Arial" font-size="10">88</text>
<rect width="7" height="520" x="658" y="40" style="fill:rgb(230,230,230);stroke:none"/>
<rect width="7" height="520" x="672" y="40" style="fill:rgb(230,230,230);stroke:none"/>
<text x="670" y="575" fill="rgb(0,0,0)" font-family="Arial" font-size="10">91</text>
<rect width="7" height="520" x="686" y="40" style="fill:rgb(230,230,230);stroke:none"/>
<text x="691" y="575" fill="rgb(0,0,0)" font-family="Arial" font-size="10">94</text>
<rect width="7" height="520" x="700" y="40" style="fill:rgb(230,230,230);stroke:none"/>
<rect width="7" height="520" x="714" y="40" style="fill:rgb(230,230,230);stroke:none"/>
<text x="712" y="575" fill="rgb(0,0,0)" font-family="Arial" font-size="10">97</text>
<rect width="7" height="520" x="728" y="40" style="fill:rgb(230,230,230);stroke:none"/>
<text x="731" y="575" fill="rgb(0,0,0)" font-family="Arial" font-size="10">100</text>
<line x1="35" y1="560" x2="790" y2="560" stroke="rgb(180,180,180)" stroke-width="1"/>
<line x1="35" y1="484" x2="790" y2="484" stroke="rgb(180,180,180)" stroke-width="1"/>
<line x1="35" y1="407" x2="790" y2="407" stroke="rgb(180,180,180)" stroke-width="1"/>
<line x1="35" y1="331" x2="790" y2="331" stroke="rgb(180,180,180)" stroke-width="1"/>
<line x1="35" y1="254" x2="790" y2="254" stroke="rgb(180,180,180)" stroke-width="1"/>
<line x1="35" y1="178" x2="790" y2="178" stroke="rgb(180,180,180)" stroke-width="1"/>
<line x1="35" y1="101" x2="790" y2="101" stroke="rgb(180,180,180)" stroke-width="1"/>
<line x1="38" y1="560" x2="45" y2="560" stroke="rgb(136,34,85)" stroke-width="1"/>
<line x1="45" y1="560" x2="52" y2="560" stroke="rgb(136,34,85)" stroke-width="1"/>
<line x1="52" y1="560" x2="59" y2="560" stroke="rgb(136,34,85)" stroke-width="1"/>
<line x1="59" y1="560" x2="66" y2="560" stroke="rgb(136,34,85)" stroke-width="1"/>
<line x1="66" y1="560" x2="73" y2="560" stroke="rgb(136,34,85)" stroke-width="1"/>
<line x1="73" y1="560" x2="80" y2="560" stroke="rgb(136,34,85)" stroke-width="1"/>
<line x1="80" y1="560" x2="87" y2="560" stroke="rgb(136,34,85)" stroke-width="1"/>
<line x1="87" y1="560" x2="94" y2="560" stroke="rgb(136,34,85)" stroke-width="1"/>
<line x1="94" y1="560" x2="101" y2="560" stroke="rgb(136,34,85)" stroke-width="1"/>
<line x1="101" y1="560" x2="108" y2="560" stroke="rgb(136,34,85)" stroke-width="1"/>
<line x1="108" y1="560" x2="115" y2="560" stroke="rgb(136,34,85)" stroke-width="1"/>
<line x1="115" y1="560" x2="122" y2="560" stroke="rgb(136,34,85)" stroke-width="1"/>
<line x1="122" y1="560" x2="129" y2="560" stroke="rgb(136,34,85)" stroke-width="1"/>
<line x1="129" y1="560" x2="136" y2="559" stroke="rgb(136,34,85)" stroke-width="1"/>
<line x1="136" y1="559" x2="143" y2="559" stroke="rgb(136,34,85)" stroke-width="1"/>
<line x1="143" y1="559" x2="150" y2="558" stroke="rgb(136,34,85)" stroke-width="1"/>
<line x1="150" y1="558" x2="157" y2="557" stroke="rgb(136,34,85)" stroke-width="1"/>
<line x1="157" y1="557" x2="164" y2="556" stroke="rgb(136,34,85)" stroke-width="1"/>
<line x1="164" y1="556" x2="171" y2="553" stroke="rgb(136,34,85)" stroke-width="1"/>
<line x1="171" y1="553" x2="178" y2="549" stroke="rgb(136,34,85)" stroke-width="1"/>
<line x1="178" y1="549" x2="185" y2="547" stroke="rgb(136,34,85)" stroke-width="1"/>
<line x1="185" y1="547" x2="192" y2="543" stroke="rgb(136,34,85)" stroke-width="1"/>
<line x1="192" y1="543" x2="199" y2="535" stroke="rgb(136,34,85)" stroke-width="1"/>
<line x1="199" y1="535" x2="206" y2="525" stroke="rgb(136,34,85)" stroke-width="1"/>
<line x1="206" y1="525" x2="213" y2="518" stroke="rgb(136,34,85)" stroke-width="1"/>
<line x1="213" y1="518" x2="220" y2="510" stroke="rgb(136,34,85)" stroke-width="1"/>
<line x1="220" y1="510" x2="227" y2="492" stroke="rgb(136,34,85)" stroke-width="1"/>
<line x1="227" y1="492" x2="234" y2="468" stroke="rgb(136,34,85)" stroke-width="1"/>
<line x1="234" y1="468" x2="241" y2="453" stroke="rgb(136,34,85)" stroke-width="1"/>
<line x1="241" y1="453" x2="248" y2="433" stroke="rgb(136,34,85)" stroke-width="1"/>
<line x1="248" y1="433" x2="255" y2="391" stroke="rgb(136,34,85)" stroke-width="1"/>
<line x1="255" y1="391" x2="262" y2="339" stroke="rgb(136,34,85)" stroke-width="1"/>
<line x1="262" y1="339" x2="269" y2="310" stroke="rgb(136,34,85)" stroke-width="1"/>
<line x1="269" y1="310" x2="276" y2="279" stroke="rgb(136,34,85)" stroke-width="1"/>
<line x1="276" y1="279" x2="283" y2="222" stroke="rgb(136,34,85)" stroke-width="1"/>
<line x1="283" y1="222" x2="290" y2="175" stroke="rgb(136,34,85)" stroke-width="1"/>
<line x1="290" y1="175" x2="297" y2="155" stroke="rgb(136,34,85)" stroke-width="1"/>
<line x1="297" y1="155" x2="304" y2="147" stroke="rgb(136,34,85)" stroke-width="1"/>
<line x1="304" y1="147" x2="311" y2="139" stroke="rgb(136,34,85)" stroke-width="1"/>
<line x1="311" y1="139" x2="318" y2="132" stroke="rgb(136,34,85)" stroke-width="1"/>
<line x1="318" y1="132" x2="325" y2="117" stroke="rgb(136,34,85)" stroke-width="1"/>
<line x1="325" y1="117" x2="332" y2="106" stroke="rgb(136,34,85)" stroke-width="1"/>
<line x1="332" y1="106" x2="339" y2="96" stroke="rgb(136,34,85)" stroke-width="1"/>
<line x1="339" y1="96" x2="346" y2="76" stroke="rgb(136,34,85)" stroke-width="1"/>
<line x1="346" y1="76" x2="353" y2="60" stroke="rgb(136,34,85)" stroke-width="1"/>
<line x1="353" y1="60" x2="360" y2="53" stroke="rgb(136,34,85)" stroke-width="1"/>
<line x1="360" y1="53" x2="367" y2="50" stroke="rgb(136,34,85)" stroke-width="1"/>
<line x1="367" y1="50" x2="374" y2="48" stroke="rgb(136,34,85)" stroke-width="1"/>
<line x1="374" y1="48" x2="381" y2="58" stroke="rgb(136,34,85)" stroke-width="1"/>
<line x1="381" y1="58" x2="388" y2="66" stroke="rgb(136,34,85)" stroke-width="1"/>
<line x1="388" y1="66" x2="395" y2="82" stroke="rgb(136,34,85)" stroke-width="1"/>
<line x1="395" y1="82" x2="402" y2="119" stroke="rgb(136,34,85)" stroke-width="1"/>
<line x1="402" y1="119" x2="409" y2="166" stroke="rgb(136,34,85)" stroke-width="1"/>
<line x1="409" y1="166" x2="416" y2="194" stroke="rgb(136,34,85)" stroke-width="1"/>
<line x1="416" y1="194" x2="423" y2="222" stroke="rgb(136,34,85)" stroke-width="1"/>
<line x1="423" y1="222" x2="430" y2="276" stroke="rgb(136,34,85)" stroke-width="1"/>
<line x1="430" y1="276" x2="437" y2="329" stroke="rgb(136,34,85)" stroke-width="1"/>
<line x1="437" y1="329" x2="444" y2="356" stroke="rgb(136,34,85)" stroke-width="1"/>
<line x1="444" y1="356" x2="451" y2="380" stroke="rgb(136,34,85)" stroke-width="1"/>
<line x1="451" y1="380" x2="458" y2="422" stroke="rgb(136,34,85)" stroke-width="1"/>
<line x1="458" y1="422" x2="465" y2="456" stroke="rgb(136,34,85)" stroke-width="1"/>
<line x1="465" y1="456" x2="472" y2="472" stroke="rgb(136,34,85)" stroke-width="1"/>
<line x1="472" y1="472" x2="479" y2="484" stroke="rgb(136,34,85)" stroke-width="1"/>
<line x1="479" y1="484" x2="486" y2="505" stroke="rgb(136,34,85)" stroke-width="1"/>
<line x1="486" y1="505" x2="493" y2="520" stroke="rgb(136,34,85)" stroke-width="1"/>
<line x1="493" y1="520" x2="500" y2="531" stroke="rgb(136,34,85)" stroke-width="1"/>
<line x1="500" y1="531" x2="507" y2="536" stroke="rgb(136,34,85)" stroke-width="1"/>
<line x1="507" y1="536" x2="514" y2="540" stroke="rgb(136,34,85)" stroke-width="1"/>
<line x1="514" y1="540" x2="521" y2="545" stroke="rgb(136,34,85)" stroke-width="1"/>
<line x1="521" y1="545" x2="528" y2="548" stroke="rgb(136,34,85)" stroke-width="1"/>
<line x1="528" y1="548" x2="535" y2="550" stroke="rgb(136,34,85)" stroke-width="1"/>
<line x1="535" y1="550" x2="542" y2="551" stroke="rgb(136,34,85)" stroke-width="1"/>
<line x1="542" y1="551" x2="549" y2="553" stroke="rgb(136,34,85)" stroke-width="1"/>
<line x1="549" y1="553" x2="556" y2="554" stroke="rgb(136,34,85)" stroke-width="1"/>
<line x1="556" y1="554" x2="563" y2="555" stroke="rgb(136,34,85)" stroke-width="1"/>
<line x1="563" y1="555" x2="570" y2="555" stroke="rgb(136,34,85)" stroke-width="1"/>
<line x1="570" y1="555" x2="577" y2="556" stroke="rgb(136,34,85)" stroke-width="1"/>
<line x1="577" y1="556" x2="584" y2="557" stroke="rgb(136,34,85)" stroke-width="1"/>
<line x1="584" y1="557" x2="591" y2="557" stroke="rgb(136,34,85)" stroke-width="1"/>
<line x1="591" y1="557" x2="598" y2="558" stroke="rgb(136,34,85)" stroke-width="1"/>
<line x1="598" y1="558" x2="605" y2="558" stroke="rgb(136,34,85)" stroke-width="1"/>
<line x1="605" y1="558" x2="612" y2="559" stroke="rgb(136,34,85)" stroke-width="1"/>
<line x1="612" y1="559" x2="619" y2="559" stroke="rgb(136,34,85)" stroke-width="1"/>
<line x1="619" y1="559" x2="626" y2="559" stroke="rgb(136,34,85)" stroke-width="1"/>
<line x1="626" y1="559" x2="633" y2="559" stroke="rgb(136,34,85)" stroke-width="1"/>
<line x1="633" y1="559" x2="640" y2="560" stroke="rgb(136,34,85)" stroke-width="1"/>
<line x1="640" y1="560" x2="647" y2="560" stroke="rgb(136,34,85)" stroke-width="1"/>
<line x1="647" y1="560" x2="654" y2="560" stroke="rgb(136,34,85)" stroke-width="1"/>
<line x1="654" y1="560" x2="661" y2="560" stroke="rgb(136,34,85)" stroke-width="1"/>
<line x1="661" y1="560" x2="668" y2="560" stroke="rgb(136,34,85)" stroke-width="1"/>
<line x1="668" y1="560" x2="675" y2="560" stroke="rgb(136,34,85)" stroke-width="1"/>
<line x1="675" y1="560" x2="682" y2="560" stroke="rgb(136,34,85)" stroke-width="1"/>
<line x1="682" y1="560" x2="689" y2="560" stroke="rgb(136,34,85)" stroke-width="1"/>
<line x1="689" y1="560" x2="696" y2="560" stroke="rgb(136,34,85)" stroke-width="1"/>
<line x1="696" y1="560" x2="703" y2="560" stroke="rgb(136,34,85)" stroke-width="1"/>
<line x1="703" y1="560" x2="710" y2="560" stroke="rgb(136,34,85)" stroke-width="1"/>
<line x1="710" y1="560" x2="717" y2="560" stroke="rgb(136,34,85)" stroke-width="1"/>
<line x1="717" y1="560" x2="724" y2="560" stroke="rgb(136,34,85)" stroke-width="1"/>
<line x1="724" y1="560" x2="731" y2="558" stroke="rgb(136,34,85)" stroke-width="1"/>
<line x1="731" y1="558" x2="738" y2="556" stroke="rgb(136,34,85)" stroke-width="1"/>
<line x1="38" y1="560" x2="45" y2="560" stroke="rgb(51,34,136)" stroke-width="1"/>
<line x1="45" y1="560" x2="52" y2="560" stroke="rgb(51,34,136)" stroke-width="1"/>
<line x1="52" y1="560" x2="59" y2="560" stroke="rgb(51,34,136)" stroke-width="1"/>
<line x1="59" y1="560" x2="66" y2="560" stroke="rgb(51,34,136)" stroke-width="1"/>
<line x1="66" y1="560" x2="73" y2="560" stroke="rgb(51,34,136)" stroke-width="1"/>
<line x1="73" y1="560" x2="80" y2="560" stroke="rgb(51,34,136)" stroke-width="1"/>
<line x1="80" y1="560" x2="87" y2="560" stroke="rgb(51,34,136)" stroke-width="1"/>
<line x1="87" y1="560" x2="94" y2="560" stroke="rgb(51,34,136)" stroke-width="1"/>
<line x1="94" y1="560" x2="101" y2="560" stroke="rgb(51,34,136)" stroke-width="1"/>
<line x1="101" y1="560" x2="108" y2="560" stroke="rgb(51,34,136)" stroke-width="1"/>
<line x1="108" y1="560" x2="115" y2="560" stroke="rgb(51,34,136)" stroke-width="1"/>
<line x1="115" y1="560" x2="122" y2="560" stroke="rgb(51,34,136)" stroke-width="1"/>
<line x1="122" y1="560" x2="129" y2="560" stroke="rgb(51,34,136)" stroke-width="1"/>
<line x1="129" y1="560" x2="136" y2="559" stroke="rgb(51,34,136)" stroke-width="1"/>
<line x1="136" y1="559" x2="143" y2="559" stroke="rgb(51,34,136)" stroke-width="1"/>
<line x1="143" y1="559" x2="150" y2="558" stroke="rgb(51,34,136)" stroke-width="1"/>
<line x1="150" y1="558" x2="157" y2="557" stroke="rgb(51,34,136)" stroke-width="1"/>
<line x1="157" y1="557" x2="164" y2="555" stroke="rgb(51,34,136)" stroke-width="1"/>
<line x1="164" y1="555" x2="171" y2="554" stroke="rgb(51,34,136)" stroke-width="1"/>
<line x1="171" y1="554" x2="178" y2="551" stroke="rgb(51,34,136)" stroke-width="1"/>
<line x1="178" y1="551" x2="185" y2="548" stroke="rgb(51,34,136)" stroke-width="1"/>
<line x1="185" y1="548" x2="192" y2="544" stroke="rgb(51,34,136)" stroke-width="1"/>
<line x1="192" y1="544" x2="199" y2="539" stroke="rgb(51,34,136)" stroke-width="1"/>
<line x1="199" y1="539" x2="206" y2="532" stroke="rgb(51,34,136)" stroke-width="1"/>
<line x1="206" y1="532" x2="213" y2="524" stroke="rgb(51,34,136)" stroke-width="1"/>
<line x1="213" y1="524" x2="220" y2="515" stroke="rgb(51,34,136)" stroke-width="1"/>
<line x1="220" y1="515" x2="227" y2="503" stroke="rgb(51,34,136)" stroke-width="1"/>
<line x1="227" y1="503" x2="234" y2="490" stroke="rgb(51,34,136)" stroke-width="1"/>
<line x1="234" y1="490" x2="241" y2="473" stroke="rgb(51,34,136)" stroke-width="1"/>
<line x1="241" y1="473" x2="248" y2="455" stroke="rgb(51,34,136)" stroke-width="1"/>
<line x1="248" y1="455" x2="255" y2="434" stroke="rgb(51,34,136)" stroke-width="1"/>
<line x1="255" y1="434" x2="262" y2="410" stroke="rgb(51,34,136)" stroke-width="1"/>
<line x1="262" y1="410" x2="269" y2="384" stroke="rgb(51,34,136)" stroke-width="1"/>
<line x1="269" y1="384" x2="276" y2="356" stroke="rgb(51,34,136)" stroke-width="1"/>
<line x1="276" y1="356" x2="283" y2="326" stroke="rgb(51,34,136)" stroke-width="1"/>
<line x1="283" y1="326" x2="290" y2="294" stroke="rgb(51,34,136)" stroke-width="1"/>
<line x1="290" y1="294" x2="297" y2="261" stroke="rgb(51,34,136)" stroke-width="1"/>
<line x1="297" y1="261" x2="304" y2="228" stroke="rgb(51,34,136)" stroke-width="1"/>
<line x1="304" y1="228" x2="311" y2="195" stroke="rgb(51,34,136)" stroke-width="1"/>
<line x1="311" y1="195" x2="318" y2="164" stroke="rgb(51,34,136)" stroke-width="1"/>
<line x1="318" y1="164" x2="325" y2="134" stroke="rgb(51,34,136)" stroke-width="1"/>
<line x1="325" y1="134" x2="332" y2="107" stroke="rgb(51,34,136)" stroke-width="1"/>
<line x1="332" y1="107" x2="339" y2="84" stroke="rgb(51,34,136)" stroke-width="1"/>
<line x1="339" y1="84" x2="346" y2="66" stroke="rgb(51,34,136)" stroke-width="1"/>
<line x1="346" y1="66" x2="353" y2="52" stroke="rgb(51,34,136)" stroke-width="1"/>
<line x1="353" y1="52" x2="360" y2="43" stroke="rgb(51,34,136)" stroke-width="1"/>
<line x1="360" y1="43" x2="367" y2="40" stroke="rgb(51,34,136)" stroke-width="1"/>
<line x1="367" y1="40" x2="374" y2="43" stroke="rgb(51,34,136)" stroke-width="1"/>
<line x1="374" y1="43" x2="381" y2="52" stroke="rgb(51,34,136)" stroke-width="1"/>
<line x1="381" y1="52" x2="388" y2="66" stroke="rgb(51,34,136)" stroke-width="1"/>
<line x1="388" y1="66" x2="395" y2="84" stroke="rgb(51,34,136)" stroke-width="1"/>
<line x1="395" y1="84" x2="402" y2="107" stroke="rgb(51,34,136)" stroke-width="1"/>
<line x1="402" y1="107" x2="409" y2="134" stroke="rgb(51,34,136)" stroke-width="1"/>
<line x1="409" y1="134" x2="416" y2="164" stroke="rgb(51,34,136)" stroke-width="1"/>
<line x1="416" y1="164" x2="423" y2="195" stroke="rgb(51,34,136)" stroke-width="1"/>
<line x1="423" y1="195" x2="430" y2="228" stroke="rgb(51,34,136)" stroke-width="1"/>
<line x1="430" y1="228" x2="437" y2="261" stroke="rgb(51,34,136)" stroke-width="1"/>
<line x1="437" y1="261" x2="444" y2="294" stroke="rgb(51,34,136)" stroke-width="1"/>
<line x1="444" y1="294" x2="451" y2="326" stroke="rgb(51,34,136)" stroke-width="1"/>
<line x1="451" y1="326" x2="458" y2="356" stroke="rgb(51,34,136)" stroke-width="1"/>
<line x1="458" y1="356" x2="465" y2="384" stroke="rgb(51,34,136)" stroke-width="1"/>
<line x1="465" y1="384" x2="472" y2="410" stroke="rgb(51,34,136)" stroke-width="1"/>
<line x1="472" y1="410" x2="479" y2="434" stroke="rgb(51,34,136)" stroke-width="1"/>
<line x1="479" y1="434" x2="486" y2="455" stroke="rgb(51,34,136)" stroke-width="1"/>
<line x1="486" y1="455" x2="493" y2="473" stroke="rgb(51,34,136)" stroke-width="1"/>
<line x1="493" y1="473" x2="500" y2="490" stroke="rgb(51,34,136)" stroke-width="1"/>
<line x1="500" y1="490" x2="507" y2="503" stroke="rgb(51,34,136)" stroke-width="1"/>
<line x1="507" y1="503" x2="514" y2="515" stroke="rgb(51,34,136)" stroke-width="1"/>
<line x1="514" y1="515" x2="521" y2="524" stroke="rgb(51,34,136)" stroke-width="1"/>
<line x1="521" y1="524" x2="528" y2="532" stroke="rgb(51,34,136)" stroke-width="1"/>
<line x1="528" y1="532" x2="535" y2="539" stroke="rgb(51,34,136)" stroke-width="1"/>
<line x1="535" y1="539" x2="542" y2="544" stroke="rgb(51,34,136)" stroke-width="1"/>
<line x1="542" y1="544" x2="549" y2="548" stroke="rgb(51,34,136)" stroke-width="1"/>
<line x1="549" y1="548" x2="556" y2="551" stroke="rgb(51,34,136)" stroke-width="1"/>
<line x1="556" y1="551" x2="563" y2="554" stroke="rgb(51,34,136)" stroke-width="1"/>
<line x1="563" y1="554" x2="570" y2="555" stroke="rgb(51,34,136)" stroke-width="1"/>
<line x1="570" y1="555" x2="577" y2="557" stroke="rgb(51,34,136)" stroke-width="1"/>
<line x1="577" y1="557" x2="584" y2="558" stroke="rgb(51,34,136)" stroke-width="1"/>
<line x1="584" y1="558" x2="591" y2="559" stroke="rgb(51,34,136)" stroke-width="1"/>
<line x1="591" y1="559" x2="598" y2="559" stroke="rgb(51,34,136)" stroke-width="1"/>
<line x1="598" y1="559" x2="605" y2="560" stroke="rgb(51,34,136)" stroke-width="1"/>
<line x1="605" y1="560" x2="612" y2="560" stroke="rgb(51,34,136)" stroke-width="1"/>
<line x1="612" y1="560" x2="619" y2="560" stroke="rgb(51,34,136)" stroke-width="1"/>
<line x1="619" y1="560" x2="626" y2="560" stroke="rgb(51,34,136)" stroke-width="1"/>
<line x1="626" y1="560" x2="633" y2="560" stroke="rgb(51,34,136)" stroke-width="1"/>
<line x1="633" y1="560" x2="640" y2="560" stroke="rgb(51,34,136)" stroke-width="1"/>
<line x1="640" y1="560" x2="647" y2="560" stroke="rgb(51,34,136)" stroke-width="1"/>
<line x1="647" y1="560" x2="654" y2="560" stroke="rgb(51,34,136)" stroke-width="1"/>
<line x1="654" y1="560" x2="661" y2="560" stroke="rgb(51,34,136)" stroke-width="1"/>
<line x1="661" y1="560" x2="668" y2="560" stroke="rgb(51,34,136)" stroke-width="1"/>
<line x1="668" y1="560" x2="675" y2="560" stroke="rgb(51,34,136)" stroke-width="1"/>
<line x1="675" y1="560" x2="682" y2="560" stroke="rgb(51,34,136)" stroke-width="1"/>
<line x1="682" y1="560" x2="689" y2="560" stroke="rgb(51,34,136)" stroke-width="1"/>
<line x1="689" y1="560" x2="696" y2="560" stroke="rgb(51,34,136)" stroke-width="1"/>
<line x1="696" y1="560" x2="703" y2="560" stroke="rgb(51,34,136)" stroke-width="1"/>
<line x1="703" y1="560" x2="710" y2="560" stroke="rgb(51,34,136)" stroke-width="1"/>
<line x1="710" y1="560" x2="717" y2="560" stroke="rgb(51,34,136)" stroke-width="1"/>
<line x1="717" y1="560" x2="724" y2="560" stroke="rgb(51,34,136)" stroke-width="1"/>
<line x1="724" y1="560" x2="731" y2="560" stroke="rgb(51,34,136)" stroke-width="1"/>
<line x1="731" y1="560" x2="738" y2="560" stroke="rgb(51,34,136)" stroke-width="1"/>
<rect width="125" height="43" x="665" y="40" style="fill:rgb(255,255,255);stroke:none"/>
<rect width="125" height="43" x="665" y="40" rx="0" ry="0" style="fill:none;stroke-width:1;stroke:rgb(192,192,192)"/>
<text x="668" y="55" fill="rgb(136,34,85)" font-family="Arial" font-size="10" font-weight="bold">GC count per read</text>
<text x="668" y="75" fill="rgb(51,34,136)" font-family="Arial" font-size="10" font-weight="bold">Theoretical Distribution</text>
</svg>
