<?xml version="1.0" standalone="no"?>
<!DOCTYPE svg PUBLIC "-//W3C//DTD SVG 1.1//EN" "http://www.w3.org/Graphics/SVG/1.1/DTD/svg11.dtd">
<svg width="800" height="600" version="1.1" xmlns="http://www.w3.org/2000/svg">
<rect width="800" height="600" x="0" y="0" style="fill:rgb(240,240,240);stroke:none"/>
<rect width="800" height="600" x="0" y="0" style="fill:rgb(255,255,255);stroke:none"/>
<text x="2" y="565" fill="rgb(0,0,0)" font-family="Arial" font-size="10">0</text>
<text x="2" y="478" fill="rgb(0,0,0)" font-family="Arial" font-size="10">2000000</text>
<text x="2" y="391" fill="rgb(0,0,0)" font-family="Arial" font-size="10">4000000</text>
<text x="2" y="304" fill="rgb(0,0,0)" font-family="Arial" font-size="10">6000000</text>
<text x="2" y="217" fill="rgb(0,0,0)" font-family="Arial" font-size="10">8000000</text>
<text x="2" y="130" fill="rgb(0,0,0)" font-family="Arial" font-size="10">1.0E7</text>
<text x="317" y="30" fill="rgb(0,0,0)" font-family="Arial" font-size="10">Quality score distribution over all sequences</text>
<line x1="40" y1="560" x2="790" y2="560" stroke="rgb(0,0,0)" stroke-width="1"/>
<line x1="40" y1="560" x2="40" y2="40" stroke="rgb(0,0,0)" stroke-width="1"/>
<text x="314" y="595" fill="rgb(0,0,0)" font-family="Arial" font-size="10">Mean Sequence Quality (Phred Score)</text>
<text x="410" y="575" fill="rgb(0,0,0)" font-family="Arial" font-size="10">30</text>
<line x1="40" y1="560" x2="790" y2="560" stroke="rgb(180,180,180)" stroke-width="1"/>
<line x1="40" y1="473" x2="790" y2="473" stroke="rgb(180,180,180)" stroke-width="1"/>
<line x1="40" y1="386" x2="790" y2="386" stroke="rgb(180,180,180)" stroke-width="1"/>
<line x1="40" y1="299" x2="790" y2="299" stroke="rgb(180,180,180)" stroke-width="1"/>
<line x1="40" y1="212" x2="790" y2="212" stroke="rgb(180,180,180)" stroke-width="1"/>
<line x1="40" y1="125" x2="790" y2="125" stroke="rgb(180,180,180)" stroke-width="1"/>
<rect width="134" height="23" x="656" y="40" style="fill:rgb(255,255,255);stroke:none"/>
<rect width="134" height="23" x="656" y="40" rx="0" ry="0" style="fill:none;stroke-width:1;stroke:rgb(192,192,192)"/>
<text x="659" y="55" fill="rgb(136,34,85)" font-family="Arial" font-size="10" font-weight="bold">Average Quality per read</text>
</svg>
