<?xml version="1.0" standalone="no"?>
<!DOCTYPE svg PUBLIC "-//W3C//DTD SVG 1.1//EN" "http://www.w3.org/Graphics/SVG/1.1/DTD/svg11.dtd">
<svg width="800" height="600" version="1.1" xmlns="http://www.w3.org/2000/svg">
<rect width="800" height="600" x="0" y="0" style="fill:rgb(240,240,240);stroke:none"/>
<rect width="800" height="600" x="0" y="0" style="fill:rgb(255,255,255);stroke:none"/>
<text x="2" y="565" fill="rgb(0,0,0)" font-family="Arial" font-size="10">0</text>
<text x="2" y="513" fill="rgb(0,0,0)" font-family="Arial" font-size="10">10</text>
<text x="2" y="461" fill="rgb(0,0,0)" font-family="Arial" font-size="10">20</text>
<text x="2" y="409" fill="rgb(0,0,0)" font-family="Arial" font-size="10">30</text>
<text x="2" y="357" fill="rgb(0,0,0)" font-family="Arial" font-size="10">40</text>
<text x="2" y="305" fill="rgb(0,0,0)" font-family="Arial" font-size="10">50</text>
<text x="2" y="253" fill="rgb(0,0,0)" font-family="Arial" font-size="10">60</text>
<text x="2" y="201" fill="rgb(0,0,0)" font-family="Arial" font-size="10">70</text>
<text x="2" y="149" fill="rgb(0,0,0)" font-family="Arial" font-size="10">80</text>
<text x="2" y="97" fill="rgb(0,0,0)" font-family="Arial" font-size="10">90</text>
<text x="2" y="45" fill="rgb(0,0,0)" font-family="Arial" font-size="10">100</text>
<text x="330" y="30" fill="rgb(0,0,0)" font-family="Arial" font-size="10">Sequence content across all bases</text>
<line x1="20" y1="560" x2="790" y2="560" stroke="rgb(0,0,0)" stroke-width="1"/>
<line x1="20" y1="560" x2="20" y2="40" stroke="rgb(0,0,0)" stroke-width="1"/>
<text x="354" y="595" fill="rgb(0,0,0)" font-family="Arial" font-size="10">Position in read (bp)</text>
<text x="26" y="575" fill="rgb(0,0,0)" font-family="Arial" font-size="10">1</text>
<rect width="17" height="520" x="37" y="40" style="fill:rgb(230,230,230);stroke:none"/>
<text x="43" y="575" fill="rgb(0,0,0)" font-family="Arial" font-size="10">2</text>
<text x="60" y="575" fill="rgb(0,0,0)" font-family="Arial" font-size="10">3</text>
<rect width="17" height="520" x="71" y="40" style="fill:rgb(230,230,230);stroke:none"/>
<text x="77" y="575" fill="rgb(0,0,0)" font-family="Arial" font-size="10">4</text>
<text x="94" y="575" fill="rgb(0,0,0)" font-family="Arial" font-size="10">5</text>
<rect width="17" height="520" x="105" y="40" style="fill:rgb(230,230,230);stroke:none"/>
<text x="111" y="575" fill="rgb(0,0,0)" font-family="Arial" font-size="10">6</text>
<text x="128" y="575" fill="rgb(0,0,0)" font-family="Arial" font-size="10">7</text>
<rect width="17" height="520" x="139" y="40" style="fill:rgb(230,230,230);stroke:none"/>
<text x="145" y="575" fill="rgb(0,0,0)" font-family="Arial" font-size="10">8</text>
<text x="162" y="575" fill="rgb(0,0,0)" font-family="Arial" font-size="10">9</text>
<rect width="17" height="520" x="173" y="40" style="fill:rgb(230,230,230);stroke:none"/>
<text x="186" y="575" fill="rgb(0,0,0)" font-family="Arial" font-size="10">12-13</text>
<rect width="17" height="520" x="207" y="40" style="fill:rgb(230,230,230);stroke:none"/>
<text x="220" y="575" fill="rgb(0,0,0)" font-family="Arial" font-size="10">16-17</text>
<rect width="17" height="520" x="241" y="40" style="fill:rgb(230,230,230);stroke:none"/>
<text x="254" y="575" fill="rgb(0,0,0)" font-family="Arial" font-size="10">20-21</text>
<rect width="17" height="520" x="275" y="40" style="fill:rgb(230,230,230);stroke:none"/>
<text x="288" y="575" fill="rgb(0,0,0)" font-family="Arial" font-size="10">24-25</text>
<rect width="17" height="520" x="309" y="40" style="fill:rgb(230,230,230);stroke:none"/>
<text x="322" y="575" fill="rgb(0,0,0)" font-family="Arial" font-size="10">28-29</text>
<rect width="17" height="520" x="343" y="40" style="fill:rgb(230,230,230);stroke:none"/>
<text x="356" y="575" fill="rgb(0,0,0)" font-family="Arial" font-size="10">32-33</text>
<rect width="17" height="520" x="377" y="40" style="fill:rgb(230,230,230);stroke:none"/>
<text x="390" y="575" fill="rgb(0,0,0)" font-family="Arial" font-size="10">36-37</text>
<rect width="17" height="520" x="411" y="40" style="fill:rgb(230,230,230);stroke:none"/>
<text x="424" y="575" fill="rgb(0,0,0)" font-family="Arial" font-size="10">40-41</text>
<rect width="17" height="520" x="445" y="40" style="fill:rgb(230,230,230);stroke:none"/>
<text x="458" y="575" fill="rgb(0,0,0)" font-family="Arial" font-size="10">44-45</text>
<rect width="17" height="520" x="479" y="40" style="fill:rgb(230,230,230);stroke:none"/>
<text x="492" y="575" fill="rgb(0,0,0)" font-family="Arial" font-size="10">48-49</text>
<rect width="17" height="520" x="513" y="40" style="fill:rgb(230,230,230);stroke:none"/>
<text x="526" y="575" fill="rgb(0,0,0)" font-family="Arial" font-size="10">52-53</text>
<rect width="17" height="520" x="547" y="40" style="fill:rgb(230,230,230);stroke:none"/>
<text x="560" y="575" fill="rgb(0,0,0)" font-family="Arial" font-size="10">56-57</text>
<rect width="17" height="520" x="581" y="40" style="fill:rgb(230,230,230);stroke:none"/>
<text x="594" y="575" fill="rgb(0,0,0)" font-family="Arial" font-size="10">60-61</text>
<rect width="17" height="520" x="615" y="40" style="fill:rgb(230,230,230);stroke:none"/>
<text x="628" y="575" fill="rgb(0,0,0)" font-family="Arial" font-size="10">64-65</text>
<rect width="17" height="520" x="649" y="40" style="fill:rgb(230,230,230);stroke:none"/>
<text x="662" y="575" fill="rgb(0,0,0)" font-family="Arial" font-size="10">68-69</text>
<rect width="17" height="520" x="683" y="40" style="fill:rgb(230,230,230);stroke:none"/>
<text x="696" y="575" fill="rgb(0,0,0)" font-family="Arial" font-size="10">72-73</text>
<rect width="17" height="520" x="717" y="40" style="fill:rgb(230,230,230);stroke:none"/>
<text x="737" y="575" fill="rgb(0,0,0)" font-family="Arial" font-size="10">76</text>
<line x1="20" y1="560" x2="790" y2="560" stroke="rgb(180,180,180)" stroke-width="1"/>
<line x1="20" y1="508" x2="790" y2="508" stroke="rgb(180,180,180)" stroke-width="1"/>
<line x1="20" y1="456" x2="790" y2="456" stroke="rgb(180,180,180)" stroke-width="1"/>
<line x1="20" y1="404" x2="790" y2="404" stroke="rgb(180,180,180)" stroke-width="1"/>
<line x1="20" y1="352" x2="790" y2="352" stroke="rgb(180,180,180)" stroke-width="1"/>
<line x1="20" y1="300" x2="790" y2="300" stroke="rgb(180,180,180)" stroke-width="1"/>
<line x1="20" y1="248" x2="790" y2="248" stroke="rgb(180,180,180)" stroke-width="1"/>
<line x1="20" y1="196" x2="790" y2="196" stroke="rgb(180,180,180)" stroke-width="1"/>
<line x1="20" y1="144" x2="790" y2="144" stroke="rgb(180,180,180)" stroke-width="1"/>
<line x1="20" y1="92" x2="790" y2="92" stroke="rgb(180,180,180)" stroke-width="1"/>
<line x1="20" y1="40" x2="790" y2="40" stroke="rgb(180,180,180)" stroke-width="1"/>
<line x1="28" y1="443" x2="45" y2="445" stroke="rgb(136,34,85)" stroke-width="1"/>
<line x1="45" y1="445" x2="62" y2="392" stroke="rgb(136,34,85)" stroke-width="1"/>
<line x1="62" y1="392" x2="79" y2="415" stroke="rgb(136,34,85)" stroke-width="1"/>
<line x1="79" y1="415" x2="96" y2="415" stroke="rgb(136,34,85)" stroke-width="1"/>
<line x1="96" y1="415" x2="113" y2="415" stroke="rgb(136,34,85)" stroke-width="1"/>
<line x1="113" y1="415" x2="130" y2="412" stroke="rgb(136,34,85)" stroke-width="1"/>
<line x1="130" y1="412" x2="147" y2="410" stroke="rgb(136,34,85)" stroke-width="1"/>
<line x1="147" y1="410" x2="164" y2="411" stroke="rgb(136,34,85)" stroke-width="1"/>
<line x1="164" y1="411" x2="181" y2="419" stroke="rgb(136,34,85)" stroke-width="1"/>
<line x1="181" y1="419" x2="198" y2="415" stroke="rgb(136,34,85)" stroke-width="1"/>
<line x1="198" y1="415" x2="215" y2="415" stroke="rgb(136,34,85)" stroke-width="1"/>
<line x1="215" y1="415" x2="232" y2="419" stroke="rgb(136,34,85)" stroke-width="1"/>
<line x1="232" y1="419" x2="249" y2="425" stroke="rgb(136,34,85)" stroke-width="1"/>
<line x1="249" y1="425" x2="266" y2="422" stroke="rgb(136,34,85)" stroke-width="1"/>
<line x1="266" y1="422" x2="283" y2="415" stroke="rgb(136,34,85)" stroke-width="1"/>
<line x1="283" y1="415" x2="300" y2="419" stroke="rgb(136,34,85)" stroke-width="1"/>
<line x1="300" y1="419" x2="317" y2="423" stroke="rgb(136,34,85)" stroke-width="1"/>
<line x1="317" y1="423" x2="334" y2="422" stroke="rgb(136,34,85)" stroke-width="1"/>
<line x1="334" y1="422" x2="351" y2="416" stroke="rgb(136,34,85)" stroke-width="1"/>
<line x1="351" y1="416" x2="368" y2="414" stroke="rgb(136,34,85)" stroke-width="1"/>
<line x1="368" y1="414" x2="385" y2="418" stroke="rgb(136,34,85)" stroke-width="1"/>
<line x1="385" y1="418" x2="402" y2="419" stroke="rgb(136,34,85)" stroke-width="1"/>
<line x1="402" y1="419" x2="419" y2="420" stroke="rgb(136,34,85)" stroke-width="1"/>
<line x1="419" y1="420" x2="436" y2="419" stroke="rgb(136,34,85)" stroke-width="1"/>
<line x1="436" y1="419" x2="453" y2="415" stroke="rgb(136,34,85)" stroke-width="1"/>
<line x1="453" y1="415" x2="470" y2="416" stroke="rgb(136,34,85)" stroke-width="1"/>
<line x1="470" y1="416" x2="487" y2="417" stroke="rgb(136,34,85)" stroke-width="1"/>
<line x1="487" y1="417" x2="504" y2="421" stroke="rgb(136,34,85)" stroke-width="1"/>
<line x1="504" y1="421" x2="521" y2="419" stroke="rgb(136,34,85)" stroke-width="1"/>
<line x1="521" y1="419" x2="538" y2="418" stroke="rgb(136,34,85)" stroke-width="1"/>
<line x1="538" y1="418" x2="555" y2="417" stroke="rgb(136,34,85)" stroke-width="1"/>
<line x1="555" y1="417" x2="572" y2="421" stroke="rgb(136,34,85)" stroke-width="1"/>
<line x1="572" y1="421" x2="589" y2="423" stroke="rgb(136,34,85)" stroke-width="1"/>
<line x1="589" y1="423" x2="606" y2="420" stroke="rgb(136,34,85)" stroke-width="1"/>
<line x1="606" y1="420" x2="623" y2="419" stroke="rgb(136,34,85)" stroke-width="1"/>
<line x1="623" y1="419" x2="640" y2="417" stroke="rgb(136,34,85)" stroke-width="1"/>
<line x1="640" y1="417" x2="657" y2="422" stroke="rgb(136,34,85)" stroke-width="1"/>
<line x1="657" y1="422" x2="674" y2="427" stroke="rgb(136,34,85)" stroke-width="1"/>
<line x1="674" y1="427" x2="691" y2="425" stroke="rgb(136,34,85)" stroke-width="1"/>
<line x1="691" y1="425" x2="708" y2="423" stroke="rgb(136,34,85)" stroke-width="1"/>
<line x1="708" y1="423" x2="725" y2="423" stroke="rgb(136,34,85)" stroke-width="1"/>
<line x1="725" y1="423" x2="742" y2="429" stroke="rgb(136,34,85)" stroke-width="1"/>
<line x1="28" y1="441" x2="45" y2="464" stroke="rgb(51,34,136)" stroke-width="1"/>
<line x1="45" y1="464" x2="62" y2="455" stroke="rgb(51,34,136)" stroke-width="1"/>
<line x1="62" y1="455" x2="79" y2="450" stroke="rgb(51,34,136)" stroke-width="1"/>
<line x1="79" y1="450" x2="96" y2="455" stroke="rgb(51,34,136)" stroke-width="1"/>
<line x1="96" y1="455" x2="113" y2="451" stroke="rgb(51,34,136)" stroke-width="1"/>
<line x1="113" y1="451" x2="130" y2="445" stroke="rgb(51,34,136)" stroke-width="1"/>
<line x1="130" y1="445" x2="147" y2="445" stroke="rgb(51,34,136)" stroke-width="1"/>
<line x1="147" y1="445" x2="164" y2="441" stroke="rgb(51,34,136)" stroke-width="1"/>
<line x1="164" y1="441" x2="181" y2="439" stroke="rgb(51,34,136)" stroke-width="1"/>
<line x1="181" y1="439" x2="198" y2="442" stroke="rgb(51,34,136)" stroke-width="1"/>
<line x1="198" y1="442" x2="215" y2="445" stroke="rgb(51,34,136)" stroke-width="1"/>
<line x1="215" y1="445" x2="232" y2="446" stroke="rgb(51,34,136)" stroke-width="1"/>
<line x1="232" y1="446" x2="249" y2="440" stroke="rgb(51,34,136)" stroke-width="1"/>
<line x1="249" y1="440" x2="266" y2="438" stroke="rgb(51,34,136)" stroke-width="1"/>
<line x1="266" y1="438" x2="283" y2="442" stroke="rgb(51,34,136)" stroke-width="1"/>
<line x1="283" y1="442" x2="300" y2="446" stroke="rgb(51,34,136)" stroke-width="1"/>
<line x1="300" y1="446" x2="317" y2="445" stroke="rgb(51,34,136)" stroke-width="1"/>
<line x1="317" y1="445" x2="334" y2="441" stroke="rgb(51,34,136)" stroke-width="1"/>
<line x1="334" y1="441" x2="351" y2="439" stroke="rgb(51,34,136)" stroke-width="1"/>
<line x1="351" y1="439" x2="368" y2="442" stroke="rgb(51,34,136)" stroke-width="1"/>
<line x1="368" y1="442" x2="385" y2="445" stroke="rgb(51,34,136)" stroke-width="1"/>
<line x1="385" y1="445" x2="402" y2="447" stroke="rgb(51,34,136)" stroke-width="1"/>
<line x1="402" y1="447" x2="419" y2="444" stroke="rgb(51,34,136)" stroke-width="1"/>
<line x1="419" y1="444" x2="436" y2="441" stroke="rgb(51,34,136)" stroke-width="1"/>
<line x1="436" y1="441" x2="453" y2="442" stroke="rgb(51,34,136)" stroke-width="1"/>
<line x1="453" y1="442" x2="470" y2="446" stroke="rgb(51,34,136)" stroke-width="1"/>
<line x1="470" y1="446" x2="487" y2="448" stroke="rgb(51,34,136)" stroke-width="1"/>
<line x1="487" y1="448" x2="504" y2="444" stroke="rgb(51,34,136)" stroke-width="1"/>
<line x1="504" y1="444" x2="521" y2="440" stroke="rgb(51,34,136)" stroke-width="1"/>
<line x1="521" y1="440" x2="538" y2="440" stroke="rgb(51,34,136)" stroke-width="1"/>
<line x1="538" y1="440" x2="555" y2="443" stroke="rgb(51,34,136)" stroke-width="1"/>
<line x1="555" y1="443" x2="572" y2="444" stroke="rgb(51,34,136)" stroke-width="1"/>
<line x1="572" y1="444" x2="589" y2="444" stroke="rgb(51,34,136)" stroke-width="1"/>
<line x1="589" y1="444" x2="606" y2="441" stroke="rgb(51,34,136)" stroke-width="1"/>
<line x1="606" y1="441" x2="623" y2="443" stroke="rgb(51,34,136)" stroke-width="1"/>
<line x1="623" y1="443" x2="640" y2="445" stroke="rgb(51,34,136)" stroke-width="1"/>
<line x1="640" y1="445" x2="657" y2="446" stroke="rgb(51,34,136)" stroke-width="1"/>
<line x1="657" y1="446" x2="674" y2="445" stroke="rgb(51,34,136)" stroke-width="1"/>
<line x1="674" y1="445" x2="691" y2="445" stroke="rgb(51,34,136)" stroke-width="1"/>
<line x1="691" y1="445" x2="708" y2="446" stroke="rgb(51,34,136)" stroke-width="1"/>
<line x1="708" y1="446" x2="725" y2="447" stroke="rgb(51,34,136)" stroke-width="1"/>
<line x1="725" y1="447" x2="742" y2="447" stroke="rgb(51,34,136)" stroke-width="1"/>
<line x1="28" y1="433" x2="45" y2="392" stroke="rgb(17,119,51)" stroke-width="1"/>
<line x1="45" y1="392" x2="62" y2="415" stroke="rgb(17,119,51)" stroke-width="1"/>
<line x1="62" y1="415" x2="79" y2="399" stroke="rgb(17,119,51)" stroke-width="1"/>
<line x1="79" y1="399" x2="96" y2="396" stroke="rgb(17,119,51)" stroke-width="1"/>
<line x1="96" y1="396" x2="113" y2="408" stroke="rgb(17,119,51)" stroke-width="1"/>
<line x1="113" y1="408" x2="130" y2="416" stroke="rgb(17,119,51)" stroke-width="1"/>
<line x1="130" y1="416" x2="147" y2="419" stroke="rgb(17,119,51)" stroke-width="1"/>
<line x1="147" y1="419" x2="164" y2="426" stroke="rgb(17,119,51)" stroke-width="1"/>
<line x1="164" y1="426" x2="181" y2="422" stroke="rgb(17,119,51)" stroke-width="1"/>
<line x1="181" y1="422" x2="198" y2="416" stroke="rgb(17,119,51)" stroke-width="1"/>
<line x1="198" y1="416" x2="215" y2="415" stroke="rgb(17,119,51)" stroke-width="1"/>
<line x1="215" y1="415" x2="232" y2="418" stroke="rgb(17,119,51)" stroke-width="1"/>
<line x1="232" y1="418" x2="249" y2="421" stroke="rgb(17,119,51)" stroke-width="1"/>
<line x1="249" y1="421" x2="266" y2="421" stroke="rgb(17,119,51)" stroke-width="1"/>
<line x1="266" y1="421" x2="283" y2="419" stroke="rgb(17,119,51)" stroke-width="1"/>
<line x1="283" y1="419" x2="300" y2="416" stroke="rgb(17,119,51)" stroke-width="1"/>
<line x1="300" y1="416" x2="317" y2="415" stroke="rgb(17,119,51)" stroke-width="1"/>
<line x1="317" y1="415" x2="334" y2="419" stroke="rgb(17,119,51)" stroke-width="1"/>
<line x1="334" y1="419" x2="351" y2="424" stroke="rgb(17,119,51)" stroke-width="1"/>
<line x1="351" y1="424" x2="368" y2="421" stroke="rgb(17,119,51)" stroke-width="1"/>
<line x1="368" y1="421" x2="385" y2="415" stroke="rgb(17,119,51)" stroke-width="1"/>
<line x1="385" y1="415" x2="402" y2="415" stroke="rgb(17,119,51)" stroke-width="1"/>
<line x1="402" y1="415" x2="419" y2="420" stroke="rgb(17,119,51)" stroke-width="1"/>
<line x1="419" y1="420" x2="436" y2="422" stroke="rgb(17,119,51)" stroke-width="1"/>
<line x1="436" y1="422" x2="453" y2="419" stroke="rgb(17,119,51)" stroke-width="1"/>
<line x1="453" y1="419" x2="470" y2="416" stroke="rgb(17,119,51)" stroke-width="1"/>
<line x1="470" y1="416" x2="487" y2="415" stroke="rgb(17,119,51)" stroke-width="1"/>
<line x1="487" y1="415" x2="504" y2="418" stroke="rgb(17,119,51)" stroke-width="1"/>
<line x1="504" y1="418" x2="521" y2="422" stroke="rgb(17,119,51)" stroke-width="1"/>
<line x1="521" y1="422" x2="538" y2="421" stroke="rgb(17,119,51)" stroke-width="1"/>
<line x1="538" y1="421" x2="555" y2="419" stroke="rgb(17,119,51)" stroke-width="1"/>
<line x1="555" y1="419" x2="572" y2="418" stroke="rgb(17,119,51)" stroke-width="1"/>
<line x1="572" y1="418" x2="589" y2="418" stroke="rgb(17,119,51)" stroke-width="1"/>
<line x1="589" y1="418" x2="606" y2="419" stroke="rgb(17,119,51)" stroke-width="1"/>
<line x1="606" y1="419" x2="623" y2="415" stroke="rgb(17,119,51)" stroke-width="1"/>
<line x1="623" y1="415" x2="640" y2="415" stroke="rgb(17,119,51)" stroke-width="1"/>
<line x1="640" y1="415" x2="657" y2="416" stroke="rgb(17,119,51)" stroke-width="1"/>
<line x1="657" y1="416" x2="674" y2="414" stroke="rgb(17,119,51)" stroke-width="1"/>
<line x1="674" y1="414" x2="691" y2="413" stroke="rgb(17,119,51)" stroke-width="1"/>
<line x1="691" y1="413" x2="708" y2="413" stroke="rgb(17,119,51)" stroke-width="1"/>
<line x1="708" y1="413" x2="725" y2="414" stroke="rgb(17,119,51)" stroke-width="1"/>
<line x1="725" y1="414" x2="742" y2="412" stroke="rgb(17,119,51)" stroke-width="1"/>
<line x1="28" y1="404" x2="45" y2="422" stroke="rgb(221,204,119)" stroke-width="1"/>
<line x1="45" y1="422" x2="62" y2="460" stroke="rgb(221,204,119)" stroke-width="1"/>
<line x1="62" y1="460" x2="79" y2="458" stroke="rgb(221,204,119)" stroke-width="1"/>
<line x1="79" y1="458" x2="96" y2="456" stroke="rgb(221,204,119)" stroke-width="1"/>
<line x1="96" y1="456" x2="113" y2="448" stroke="rgb(221,204,119)" stroke-width="1"/>
<line x1="113" y1="448" x2="130" y2="449" stroke="rgb(221,204,119)" stroke-width="1"/>
<line x1="130" y1="449" x2="147" y2="449" stroke="rgb(221,204,119)" stroke-width="1"/>
<line x1="147" y1="449" x2="164" y2="445" stroke="rgb(221,204,119)" stroke-width="1"/>
<line x1="164" y1="445" x2="181" y2="442" stroke="rgb(221,204,119)" stroke-width="1"/>
<line x1="181" y1="442" x2="198" y2="448" stroke="rgb(221,204,119)" stroke-width="1"/>
<line x1="198" y1="448" x2="215" y2="447" stroke="rgb(221,204,119)" stroke-width="1"/>
<line x1="215" y1="447" x2="232" y2="439" stroke="rgb(221,204,119)" stroke-width="1"/>
<line x1="232" y1="439" x2="249" y2="437" stroke="rgb(221,204,119)" stroke-width="1"/>
<line x1="249" y1="437" x2="266" y2="441" stroke="rgb(221,204,119)" stroke-width="1"/>
<line x1="266" y1="441" x2="283" y2="446" stroke="rgb(221,204,119)" stroke-width="1"/>
<line x1="283" y1="446" x2="300" y2="442" stroke="rgb(221,204,119)" stroke-width="1"/>
<line x1="300" y1="442" x2="317" y2="438" stroke="rgb(221,204,119)" stroke-width="1"/>
<line x1="317" y1="438" x2="334" y2="440" stroke="rgb(221,204,119)" stroke-width="1"/>
<line x1="334" y1="440" x2="351" y2="443" stroke="rgb(221,204,119)" stroke-width="1"/>
<line x1="351" y1="443" x2="368" y2="445" stroke="rgb(221,204,119)" stroke-width="1"/>
<line x1="368" y1="445" x2="385" y2="444" stroke="rgb(221,204,119)" stroke-width="1"/>
<line x1="385" y1="444" x2="402" y2="442" stroke="rgb(221,204,119)" stroke-width="1"/>
<line x1="402" y1="442" x2="419" y2="437" stroke="rgb(221,204,119)" stroke-width="1"/>
<line x1="419" y1="437" x2="436" y2="440" stroke="rgb(221,204,119)" stroke-width="1"/>
<line x1="436" y1="440" x2="453" y2="446" stroke="rgb(221,204,119)" stroke-width="1"/>
<line x1="453" y1="446" x2="470" y2="444" stroke="rgb(221,204,119)" stroke-width="1"/>
<line x1="470" y1="444" x2="487" y2="442" stroke="rgb(221,204,119)" stroke-width="1"/>
<line x1="487" y1="442" x2="504" y2="439" stroke="rgb(221,204,119)" stroke-width="1"/>
<line x1="504" y1="439" x2="521" y2="441" stroke="rgb(221,204,119)" stroke-width="1"/>
<line x1="521" y1="441" x2="538" y2="443" stroke="rgb(221,204,119)" stroke-width="1"/>
<line x1="538" y1="443" x2="555" y2="443" stroke="rgb(221,204,119)" stroke-width="1"/>
<line x1="555" y1="443" x2="572" y2="439" stroke="rgb(221,204,119)" stroke-width="1"/>
<line x1="572" y1="439" x2="589" y2="437" stroke="rgb(221,204,119)" stroke-width="1"/>
<line x1="589" y1="437" x2="606" y2="441" stroke="rgb(221,204,119)" stroke-width="1"/>
<line x1="606" y1="441" x2="623" y2="445" stroke="rgb(221,204,119)" stroke-width="1"/>
<line x1="623" y1="445" x2="640" y2="445" stroke="rgb(221,204,119)" stroke-width="1"/>
<line x1="640" y1="445" x2="657" y2="438" stroke="rgb(221,204,119)" stroke-width="1"/>
<line x1="657" y1="438" x2="674" y2="436" stroke="rgb(221,204,119)" stroke-width="1"/>
<line x1="674" y1="436" x2="691" y2="438" stroke="rgb(221,204,119)" stroke-width="1"/>
<line x1="691" y1="438" x2="708" y2="440" stroke="rgb(221,204,119)" stroke-width="1"/>
<line x1="708" y1="440" x2="725" y2="438" stroke="rgb(221,204,119)" stroke-width="1"/>
<line x1="725" y1="438" x2="742" y2="434" stroke="rgb(221,204,119)" stroke-width="1"/>
<rect width="26" height="83" x="764" y="40" style="fill:rgb(255,255,255);stroke:none"/>
<rect width="26" height="83" x="764" y="40" rx="0" ry="0" style="fill:none;stroke-width:1;stroke:rgb(192,192,192)"/>
<text x="767" y="55" fill="rgb(136,34,85)" font-family="Arial" font-size="10" font-weight="bold">%T</text>
<text x="767" y="75" fill="rgb(51,34,136)" font-family="Arial" font-size="10" font-weight="bold">%C</text>
<text x="767" y="95" fill="rgb(17,119,51)" font-family="Arial" font-size="10" font-weight="bold">%A</text>
<text x="767" y="115" fill="rgb(221,204,119)" font-family="Arial" font-size="10" font-weight="bold">%G</text>
</svg>
