<?xml version="1.0" standalone="no"?>
<!DOCTYPE svg PUBLIC "-//W3C//DTD SVG 1.1//EN" "http://www.w3.org/Graphics/SVG/1.1/DTD/svg11.dtd">
<svg width="800" height="600" version="1.1" xmlns="http://www.w3.org/2000/svg">
<rect width="800" height="600" x="0" y="0" style="fill:rgb(240,240,240);stroke:none"/>
<rect width="800" height="600" x="0" y="0" style="fill:rgb(255,255,255);stroke:none"/>
<text x="2" y="565" fill="rgb(0,0,0)" font-family="Arial" font-size="10">0</text>
<text x="2" y="473" fill="rgb(0,0,0)" font-family="Arial" font-size="10">2000000</text>
<text x="2" y="380" fill="rgb(0,0,0)" font-family="Arial" font-size="10">4000000</text>
<text x="2" y="288" fill="rgb(0,0,0)" font-family="Arial" font-size="10">6000000</text>
<text x="2" y="195" fill="rgb(0,0,0)" font-family="Arial" font-size="10">8000000</text>
<text x="2" y="103" fill="rgb(0,0,0)" font-family="Arial" font-size="10">1.0E7</text>
<text x="301" y="30" fill="rgb(0,0,0)" font-family="Arial" font-size="10">Distribution of sequence lengths over all sequences</text>
<line x1="40" y1="560" x2="790" y2="560" stroke="rgb(0,0,0)" stroke-width="1"/>
<line x1="40" y1="560" x2="40" y2="40" stroke="rgb(0,0,0)" stroke-width="1"/>
<text x="350" y="595" fill="rgb(0,0,0)" font-family="Arial" font-size="10">Sequence Length (bp)</text>
<text x="43" y="575" fill="rgb(0,0,0)" font-family="Arial" font-size="10">35</text>
<rect width="17" height="520" x="57" y="40" style="fill:rgb(230,230,230);stroke:none"/>
<text x="60" y="575" fill="rgb(0,0,0)" font-family="Arial" font-size="10">36</text>
<text x="77" y="575" fill="rgb(0,0,0)" font-family="Arial" font-size="10">37</text>
<rect width="17" height="520" x="91" y="40" style="fill:rgb(230,230,230);stroke:none"/>
<text x="94" y="575" fill="rgb(0,0,0)" font-family="Arial" font-size="10">38</text>
<text x="111" y="575" fill="rgb(0,0,0)" font-family="Arial" font-size="10">39</text>
<rect width="17" height="520" x="125" y="40" style="fill:rgb(230,230,230);stroke:none"/>
<text x="128" y="575" fill="rgb(0,0,0)" font-family="Arial" font-size="10">40</text>
<text x="145" y="575" fill="rgb(0,0,0)" font-family="Arial" font-size="10">41</text>
<rect width="17" height="520" x="159" y="40" style="fill:rgb(230,230,230);stroke:none"/>
<text x="162" y="575" fill="rgb(0,0,0)" font-family="Arial" font-size="10">42</text>
<text x="179" y="575" fill="rgb(0,0,0)" font-family="Arial" font-size="10">43</text>
<rect width="17" height="520" x="193" y="40" style="fill:rgb(230,230,230);stroke:none"/>
<text x="196" y="575" fill="rgb(0,0,0)" font-family="Arial" font-size="10">44</text>
<text x="213" y="575" fill="rgb(0,0,0)" font-family="Arial" font-size="10">45</text>
<rect width="17" height="520" x="227" y="40" style="fill:rgb(230,230,230);stroke:none"/>
<text x="230" y="575" fill="rgb(0,0,0)" font-family="Arial" font-size="10">46</text>
<text x="247" y="575" fill="rgb(0,0,0)" font-family="Arial" font-size="10">47</text>
<rect width="17" height="520" x="261" y="40" style="fill:rgb(230,230,230);stroke:none"/>
<text x="264" y="575" fill="rgb(0,0,0)" font-family="Arial" font-size="10">48</text>
<text x="281" y="575" fill="rgb(0,0,0)" font-family="Arial" font-size="10">49</text>
<rect width="17" height="520" x="295" y="40" style="fill:rgb(230,230,230);stroke:none"/>
<text x="298" y="575" fill="rgb(0,0,0)" font-family="Arial" font-size="10">50</text>
<text x="315" y="575" fill="rgb(0,0,0)" font-family="Arial" font-size="10">51</text>
<rect width="17" height="520" x="329" y="40" style="fill:rgb(230,230,230);stroke:none"/>
<text x="332" y="575" fill="rgb(0,0,0)" font-family="Arial" font-size="10">52</text>
<text x="349" y="575" fill="rgb(0,0,0)" font-family="Arial" font-size="10">53</text>
<rect width="17" height="520" x="363" y="40" style="fill:rgb(230,230,230);stroke:none"/>
<text x="366" y="575" fill="rgb(0,0,0)" font-family="Arial" font-size="10">54</text>
<text x="383" y="575" fill="rgb(0,0,0)" font-family="Arial" font-size="10">55</text>
<rect width="17" height="520" x="397" y="40" style="fill:rgb(230,230,230);stroke:none"/>
<text x="400" y="575" fill="rgb(0,0,0)" font-family="Arial" font-size="10">56</text>
<text x="417" y="575" fill="rgb(0,0,0)" font-family="Arial" font-size="10">57</text>
<rect width="17" height="520" x="431" y="40" style="fill:rgb(230,230,230);stroke:none"/>
<text x="434" y="575" fill="rgb(0,0,0)" font-family="Arial" font-size="10">58</text>
<text x="451" y="575" fill="rgb(0,0,0)" font-family="Arial" font-size="10">59</text>
<rect width="17" height="520" x="465" y="40" style="fill:rgb(230,230,230);stroke:none"/>
<text x="468" y="575" fill="rgb(0,0,0)" font-family="Arial" font-size="10">60</text>
<text x="485" y="575" fill="rgb(0,0,0)" font-family="Arial" font-size="10">61</text>
<rect width="17" height="520" x="499" y="40" style="fill:rgb(230,230,230);stroke:none"/>
<text x="502" y="575" fill="rgb(0,0,0)" font-family="Arial" font-size="10">62</text>
<text x="519" y="575" fill="rgb(0,0,0)" font-family="Arial" font-size="10">63</text>
<rect width="17" height="520" x="533" y="40" style="fill:rgb(230,230,230);stroke:none"/>
<text x="536" y="575" fill="rgb(0,0,0)" font-family="Arial" font-size="10">64</text>
<text x="553" y="575" fill="rgb(0,0,0)" font-family="Arial" font-size="10">65</text>
<rect width="17" height="520" x="567" y="40" style="fill:rgb(230,230,230);stroke:none"/>
<text x="570" y="575" fill="rgb(0,0,0)" font-family="Arial" font-size="10">66</text>
<text x="587" y="575" fill="rgb(0,0,0)" font-family="Arial" font-size="10">67</text>
<rect width="17" height="520" x="601" y="40" style="fill:rgb(230,230,230);stroke:none"/>
<text x="604" y="575" fill="rgb(0,0,0)" font-family="Arial" font-size="10">68</text>
<text x="621" y="575" fill="rgb(0,0,0)" font-family="Arial" font-size="10">69</text>
<rect width="17" height="520" x="635" y="40" style="fill:rgb(230,230,230);stroke:none"/>
<text x="638" y="575" fill="rgb(0,0,0)" font-family="Arial" font-size="10">70</text>
<text x="655" y="575" fill="rgb(0,0,0)" font-family="Arial" font-size="10">71</text>
<rect width="17" height="520" x="669" y="40" style="fill:rgb(230,230,230);stroke:none"/>
<text x="672" y="575" fill="rgb(0,0,0)" font-family="Arial" font-size="10">72</text>
<text x="689" y="575" fill="rgb(0,0,0)" font-family="Arial" font-size="10">73</text>
<rect width="17" height="520" x="703" y="40" style="fill:rgb(230,230,230);stroke:none"/>
<text x="706" y="575" fill="rgb(0,0,0)" font-family="Arial" font-size="10">74</text>
<text x="723" y="575" fill="rgb(0,0,0)" font-family="Arial" font-size="10">75</text>
<rect width="17" height="520" x="737" y="40" style="fill:rgb(230,230,230);stroke:none"/>
<text x="740" y="575" fill="rgb(0,0,0)" font-family="Arial" font-size="10">76</text>
<text x="757" y="575" fill="rgb(0,0,0)" font-family="Arial" font-size="10">77</text>
<line x1="40" y1="560" x2="790" y2="560" stroke="rgb(180,180,180)" stroke-width="1"/>
<line x1="40" y1="468" x2="790" y2="468" stroke="rgb(180,180,180)" stroke-width="1"/>
<line x1="40" y1="375" x2="790" y2="375" stroke="rgb(180,180,180)" stroke-width="1"/>
<line x1="40" y1="283" x2="790" y2="283" stroke="rgb(180,180,180)" stroke-width="1"/>
<line x1="40" y1="190" x2="790" y2="190" stroke="rgb(180,180,180)" stroke-width="1"/>
<line x1="40" y1="98" x2="790" y2="98" stroke="rgb(180,180,180)" stroke-width="1"/>
<line x1="48" y1="560" x2="65" y2="560" stroke="rgb(136,34,85)" stroke-width="1"/>
<line x1="65" y1="560" x2="82" y2="560" stroke="rgb(136,34,85)" stroke-width="1"/>
<line x1="82" y1="560" x2="99" y2="560" stroke="rgb(136,34,85)" stroke-width="1"/>
<line x1="99" y1="560" x2="116" y2="560" stroke="rgb(136,34,85)" stroke-width="1"/>
<line x1="116" y1="560" x2="133" y2="560" stroke="rgb(136,34,85)" stroke-width="1"/>
<line x1="133" y1="560" x2="150" y2="560" stroke="rgb(136,34,85)" stroke-width="1"/>
<line x1="150" y1="560" x2="167" y2="560" stroke="rgb(136,34,85)" stroke-width="1"/>
<line x1="167" y1="560" x2="184" y2="560" stroke="rgb(136,34,85)" stroke-width="1"/>
<line x1="184" y1="560" x2="201" y2="560" stroke="rgb(136,34,85)" stroke-width="1"/>
<line x1="201" y1="560" x2="218" y2="560" stroke="rgb(136,34,85)" stroke-width="1"/>
<line x1="218" y1="560" x2="235" y2="559" stroke="rgb(136,34,85)" stroke-width="1"/>
<line x1="235" y1="559" x2="252" y2="559" stroke="rgb(136,34,85)" stroke-width="1"/>
<line x1="252" y1="559" x2="269" y2="559" stroke="rgb(136,34,85)" stroke-width="1"/>
<line x1="269" y1="559" x2="286" y2="559" stroke="rgb(136,34,85)" stroke-width="1"/>
<line x1="286" y1="559" x2="303" y2="559" stroke="rgb(136,34,85)" stroke-width="1"/>
<line x1="303" y1="559" x2="320" y2="559" stroke="rgb(136,34,85)" stroke-width="1"/>
<line x1="320" y1="559" x2="337" y2="559" stroke="rgb(136,34,85)" stroke-width="1"/>
<line x1="337" y1="559" x2="354" y2="559" stroke="rgb(136,34,85)" stroke-width="1"/>
<line x1="354" y1="559" x2="371" y2="559" stroke="rgb(136,34,85)" stroke-width="1"/>
<line x1="371" y1="559" x2="388" y2="559" stroke="rgb(136,34,85)" stroke-width="1"/>
<line x1="388" y1="559" x2="405" y2="558" stroke="rgb(136,34,85)" stroke-width="1"/>
<line x1="405" y1="558" x2="422" y2="558" stroke="rgb(136,34,85)" stroke-width="1"/>
<line x1="422" y1="558" x2="439" y2="558" stroke="rgb(136,34,85)" stroke-width="1"/>
<line x1="439" y1="558" x2="456" y2="558" stroke="rgb(136,34,85)" stroke-width="1"/>
<line x1="456" y1="558" x2="473" y2="560" stroke="rgb(136,34,85)" stroke-width="1"/>
<line x1="473" y1="560" x2="490" y2="560" stroke="rgb(136,34,85)" stroke-width="1"/>
<line x1="490" y1="560" x2="507" y2="560" stroke="rgb(136,34,85)" stroke-width="1"/>
<line x1="507" y1="560" x2="524" y2="560" stroke="rgb(136,34,85)" stroke-width="1"/>
<line x1="524" y1="560" x2="541" y2="560" stroke="rgb(136,34,85)" stroke-width="1"/>
<line x1="541" y1="560" x2="558" y2="560" stroke="rgb(136,34,85)" stroke-width="1"/>
<line x1="558" y1="560" x2="575" y2="560" stroke="rgb(136,34,85)" stroke-width="1"/>
<line x1="575" y1="560" x2="592" y2="560" stroke="rgb(136,34,85)" stroke-width="1"/>
<line x1="592" y1="560" x2="609" y2="560" stroke="rgb(136,34,85)" stroke-width="1"/>
<line x1="609" y1="560" x2="626" y2="560" stroke="rgb(136,34,85)" stroke-width="1"/>
<line x1="626" y1="560" x2="643" y2="560" stroke="rgb(136,34,85)" stroke-width="1"/>
<line x1="643" y1="560" x2="660" y2="560" stroke="rgb(136,34,85)" stroke-width="1"/>
<line x1="660" y1="560" x2="677" y2="560" stroke="rgb(136,34,85)" stroke-width="1"/>
<line x1="677" y1="560" x2="694" y2="560" stroke="rgb(136,34,85)" stroke-width="1"/>
<line x1="694" y1="560" x2="711" y2="560" stroke="rgb(136,34,85)" stroke-width="1"/>
<line x1="711" y1="560" x2="728" y2="560" stroke="rgb(136,34,85)" stroke-width="1"/>
<line x1="728" y1="560" x2="745" y2="40" stroke="rgb(136,34,85)" stroke-width="1"/>
<line x1="745" y1="40" x2="762" y2="560" stroke="rgb(136,34,85)" stroke-width="1"/>
<rect width="90" height="23" x="700" y="40" style="fill:rgb(255,255,255);stroke:none"/>
<rect width="90" height="23" x="700" y="40" rx="0" ry="0" style="fill:none;stroke-width:1;stroke:rgb(192,192,192)"/>
<text x="703" y="55" fill="rgb(136,34,85)" font-family="Arial" font-size="10" font-weight="bold">Sequence Length</text>
</svg>
